<?xml version="1.0" encoding="UTF-8" standalone="no"?>
<svg
   xmlns:dc="http://purl.org/dc/elements/1.1/"
   xmlns:cc="http://creativecommons.org/ns#"
   xmlns:rdf="http://www.w3.org/1999/02/22-rdf-syntax-ns#"
   xmlns:svg="http://www.w3.org/2000/svg"
   xmlns="http://www.w3.org/2000/svg"
   xmlns:sodipodi="http://sodipodi.sourceforge.net/DTD/sodipodi-0.dtd"
   xmlns:inkscape="http://www.inkscape.org/namespaces/inkscape"
   version="1.1"
   id="svg10"
   xml:space="preserve"
   width="828.43616"
   height="517.61353"
   viewBox="0 0 828.43616 517.61353"
   sodipodi:docname="welcome.svg"
   inkscape:version="1.0.2 (e86c8708, 2021-01-15)"><metadata
     id="metadata16"><rdf:RDF><cc:Work
         rdf:about=""><dc:format>image/svg+xml</dc:format><dc:type
           rdf:resource="http://purl.org/dc/dcmitype/StillImage" /><dc:title></dc:title></cc:Work></rdf:RDF></metadata><defs
     id="defs14" /><sodipodi:namedview
     pagecolor="#ffffff"
     bordercolor="#666666"
     borderopacity="1"
     objecttolerance="10"
     gridtolerance="10"
     guidetolerance="10"
     inkscape:pageopacity="0"
     inkscape:pageshadow="2"
     inkscape:window-width="1792"
     inkscape:window-height="1120"
     id="namedview12"
     showgrid="false"
     fit-margin-top="0"
     fit-margin-left="0"
     fit-margin-right="0"
     fit-margin-bottom="0"
     inkscape:zoom="0.748"
     inkscape:cx="383.7197"
     inkscape:cy="268.89466"
     inkscape:window-x="0"
     inkscape:window-y="0"
     inkscape:window-maximized="0"
     inkscape:current-layer="g20" /><g
     id="g18"
     inkscape:groupmode="layer"
     inkscape:label="ink_ext_XXXXXX"
     transform="matrix(1.3333333,0,0,-1.3333333,-92.216131,602.22798)"><g
       id="g20"
       transform="scale(0.1)"><path
         d="m 5850.25,1974.14 c 0,1187.5 -962.66,2150.16 -2150.16,2150.16 -1187.51,0 -2150.17,-962.66 -2150.17,-2150.16 0,-498.53 169.72,-957.39 454.46,-1322.081 H 5395.8 c 284.73,364.691 454.45,823.551 454.45,1322.081"
         style="fill:#5995fd;fill-opacity:0.465587;fill-rule:nonzero;stroke:none"
         id="path24" /><path
         d="m 5664.77,4291.9 c 0,-38.94 -31.56,-70.5 -70.49,-70.5 -38.94,0 -70.51,31.56 -70.51,70.5 0,38.94 31.57,70.51 70.51,70.51 38.93,0 70.49,-31.57 70.49,-70.51 z"
         style="fill:none;stroke:#fcf9fc;stroke-width:17.8447;stroke-linecap:butt;stroke-linejoin:miter;stroke-miterlimit:10;stroke-dasharray:none;stroke-opacity:1"
         id="path44" /><path
         d="m 853.145,1267.3 c 0,-38.93 -31.563,-70.5 -70.504,-70.5 -38.934,0 -70.5,31.57 -70.5,70.5 0,38.94 31.566,70.51 70.5,70.51 38.941,0 70.504,-31.57 70.504,-70.51 z"
         style="fill:none;stroke:#fcf9fc;stroke-width:17.8447;stroke-linecap:butt;stroke-linejoin:miter;stroke-miterlimit:10;stroke-dasharray:none;stroke-opacity:1"
         id="path46" /><path
         d="m 6895.97,2588.34 c 0,-26.2 -21.24,-47.44 -47.45,-47.44 -26.2,0 -47.44,21.24 -47.44,47.44 0,26.21 21.24,47.45 47.44,47.45 26.21,0 47.45,-21.24 47.45,-47.45 z"
         style="fill:none;stroke:#fcf9fc;stroke-width:17.8447;stroke-linecap:butt;stroke-linejoin:miter;stroke-miterlimit:10;stroke-dasharray:none;stroke-opacity:1"
         id="path48" /><path
         d="m 977.301,3925.56 c 0,0 -23.832,-39.94 8.816,-63.73 32.653,-23.81 61.063,20.65 97.333,-6.81 36.28,-27.46 6.11,-60.99 6.11,-60.99"
         style="fill:none;stroke:#fcf9fc;stroke-width:17.8447;stroke-linecap:butt;stroke-linejoin:miter;stroke-miterlimit:10;stroke-dasharray:none;stroke-opacity:1"
         id="path50" /><path
         d="m 6582.9,1740.45 c 0,0 -18.16,-54.99 27.97,-75.09 46.14,-20.1 68.64,41.64 120.17,18.08 51.54,-23.57 23.93,-72.5 23.93,-72.5"
         style="fill:none;stroke:#fcf9fc;stroke-width:17.8447;stroke-linecap:butt;stroke-linejoin:miter;stroke-miterlimit:10;stroke-dasharray:none;stroke-opacity:1"
         id="path52" /><path
         d="m 1093.27,2670.63 c 0,-33.75 -27.36,-61.11 -61.11,-61.11 -33.754,0 -61.113,27.36 -61.113,61.11 0,33.75 27.359,61.11 61.113,61.11 33.75,0 61.11,-27.36 61.11,-61.11"
         style="fill:#9a68bb;fill-opacity:1;fill-rule:nonzero;stroke:none"
         id="path54" /><path
         d="m 6306.75,3625.74 c 0,-33.75 -27.37,-61.11 -61.12,-61.11 -33.76,0 -61.11,27.36 -61.11,61.11 0,33.75 27.35,61.11 61.11,61.11 33.75,0 61.12,-27.36 61.12,-61.11"
         style="fill:#ee2281;fill-opacity:1;fill-rule:nonzero;stroke:none"
         id="path56" /><path
         d="m 6197.23,1218.5 c 0,-25.78 -20.89,-46.66 -46.66,-46.66 -25.78,0 -46.66,20.88 -46.66,46.66 0,25.77 20.88,46.66 46.66,46.66 25.77,0 46.66,-20.89 46.66,-46.66"
         style="fill:#9a68bb;fill-opacity:1;fill-rule:nonzero;stroke:none"
         id="path58" /><path
         d="m 3329.22,4470.05 c 0,-25.77 -20.9,-46.66 -46.67,-46.66 -25.77,0 -46.66,20.89 -46.66,46.66 0,25.77 20.89,46.66 46.66,46.66 25.77,0 46.67,-20.89 46.67,-46.66"
         style="fill:#c79cd4;fill-opacity:1;fill-rule:nonzero;stroke:none"
         id="path60" /><path
         d="m 6164.36,3025.23 h 405.01"
         style="fill:none;stroke:#fcf9fc;stroke-width:19.3638;stroke-linecap:round;stroke-linejoin:round;stroke-miterlimit:10;stroke-dasharray:none;stroke-opacity:1"
         id="path62" /><path
         d="M 691.621,3136 H 1406.55"
         style="fill:none;stroke:#fcf9fc;stroke-width:19.3638;stroke-linecap:butt;stroke-linejoin:miter;stroke-miterlimit:10;stroke-dasharray:none;stroke-opacity:1"
         id="path64" /><path
         d="m 3682.69,4470.05 h 429.9"
         style="fill:none;stroke:#fcf9fc;stroke-width:19.3638;stroke-linecap:round;stroke-linejoin:round;stroke-miterlimit:10;stroke-dasharray:none;stroke-opacity:1"
         id="path66" /><path
         d="m 2833.21,3702.19 c 0,0 -28.25,-204.69 -270.1,-332.52 -257.88,-136.29 -74.58,-546.21 374.05,-560.07 487.35,-15.05 753.47,423.88 388.81,973.91 l -492.76,-81.32"
         style="fill:#39151a;fill-opacity:1;fill-rule:nonzero;stroke:none"
         id="path68" /><path
         d="m 2984.17,3064.5 2.55,353.36 h 215.85 l 4.59,-357.44 -222.99,4.08"
         style="fill:#e3745c;fill-opacity:1;fill-rule:nonzero;stroke:none"
         id="path70" /><path
         d="m 2959.37,3314.32 c -11.43,31.27 74.78,-144.93 164.29,-133.45 76.76,9.85 89.7,148.05 89.7,148.05 0,0 -35.53,-52.6 -116.56,-52.71 -90.36,-0.14 -137.43,38.11 -137.43,38.11"
         style="fill:#39151a;fill-opacity:1;fill-rule:nonzero;stroke:none"
         id="path72" /><path
         d="m 2830.71,3612.71 c 27.47,-157.53 119.04,-290.1 265.87,-290.1 146.84,0 247.78,131.04 265.87,290.1 20.53,180.47 -119.03,287.04 -265.87,287.04 -146.83,0 -294.07,-125.28 -265.87,-287.04"
         style="fill:#39151a;fill-opacity:1;fill-rule:nonzero;stroke:none"
         id="path74" /><path
         d="m 2866.78,3530.58 c 0,0 -19.14,30.45 -58.63,15.47 -39.48,-14.97 -21.62,-110.86 37.61,-123.08 0,0 21.23,-4.63 37.87,9.91 0,0 -14.56,70.82 -16.85,97.7"
         style="fill:#e3745c;fill-opacity:1;fill-rule:nonzero;stroke:none"
         id="path76" /><path
         d="m 2815.98,3512.23 c 0,0 33.08,11.03 56.55,-37.67"
         style="fill:none;stroke:#181416;stroke-width:10.2364;stroke-linecap:round;stroke-linejoin:round;stroke-miterlimit:10;stroke-dasharray:none;stroke-opacity:1"
         id="path78" /><path
         d="m 3320.19,3530.58 c 0,0 19.14,30.45 58.62,15.47 39.49,-14.97 21.62,-110.86 -37.6,-123.08 0,0 -21.23,-4.63 -37.88,9.91 0,0 14.57,70.82 16.86,97.7"
         style="fill:#e3745c;fill-opacity:1;fill-rule:nonzero;stroke:none"
         id="path80" /><path
         d="m 3370.98,3512.23 c 0,0 -33.08,11.03 -56.55,-37.67"
         style="fill:none;stroke:#181416;stroke-width:10.2364;stroke-linecap:round;stroke-linejoin:round;stroke-miterlimit:10;stroke-dasharray:none;stroke-opacity:1"
         id="path82" /><path
         d="m 2863.05,3613.21 c -0.02,-61.45 6.34,-177.02 46.17,-253.32 37.4,-71.65 103.97,-108.03 185.11,-108.08 79.93,-0.04 153.14,54.4 185.17,115.91 48.41,92.98 46.1,244.35 46.1,244.35 0,0 0,219.52 -228.76,219.52 -240.95,0 -233.79,-218.38 -233.79,-218.38"
         style="fill:#e3745c;fill-opacity:1;fill-rule:nonzero;stroke:none"
         id="path84" /><path
         d="m 3042.85,3623.77 -125.47,-32.41 c 0,0 5.7,35.2 57.03,47.99 51.33,12.78 68.44,-15.58 68.44,-15.58"
         style="fill:#1a181b;fill-opacity:1;fill-rule:nonzero;stroke:none"
         id="path86" /><path
         d="m 3122.58,3623.77 125.47,-32.41 c 0,0 -5.7,35.2 -57.03,47.99 -51.33,12.78 -68.44,-15.58 -68.44,-15.58"
         style="fill:#1a181b;fill-opacity:1;fill-rule:nonzero;stroke:none"
         id="path88" /><path
         d="m 3075.48,3519.91 -5.65,-44.83 h 32.54"
         style="fill:none;stroke:#181416;stroke-width:10.2364;stroke-linecap:round;stroke-linejoin:round;stroke-miterlimit:10;stroke-dasharray:none;stroke-opacity:1"
         id="path90" /><path
         d="m 3182.48,3437.05 h -182.77 c 0,0 5.23,-67.23 90.92,-67.38 78.97,-0.14 91.85,67.38 91.85,67.38"
         style="fill:#ffffff;fill-opacity:1;fill-rule:nonzero;stroke:none"
         id="path92" /><path
         d="m 3016.87,3551.77 c 0,0 -34.69,17.68 -64.04,0"
         style="fill:none;stroke:#181416;stroke-width:10.2364;stroke-linecap:round;stroke-linejoin:round;stroke-miterlimit:10;stroke-dasharray:none;stroke-opacity:1"
         id="path94" /><path
         d="m 3216.47,3551.77 c 0,0 -34.69,17.68 -64.04,0"
         style="fill:none;stroke:#181416;stroke-width:10.2364;stroke-linecap:round;stroke-linejoin:round;stroke-miterlimit:10;stroke-dasharray:none;stroke-opacity:1"
         id="path96" /><path
         d="m 3320.19,3530.58 c 0,0 -60.92,120.75 -18.37,228.13 0,0 42.38,-0.65 40.88,-168.2 l -22.51,-59.93"
         style="fill:#39151a;fill-opacity:1;fill-rule:nonzero;stroke:none"
         id="path98" /><path
         d="m 2866.81,3530.58 c 0,0 60.73,128.31 18.37,228.13 0,0 -42.39,-0.65 -40.89,-168.2 l 22.52,-59.93"
         style="fill:#39151a;fill-opacity:1;fill-rule:nonzero;stroke:none"
         id="path100" /><path
         d="m 3364.47,3665.42 c 0,0 -329.96,19.55 -425.58,153.25 0,0 31.23,83.22 178.21,60.16 146.98,-23.05 247.37,-213.41 247.37,-213.41"
         style="fill:#39151a;fill-opacity:1;fill-rule:nonzero;stroke:none"
         id="path102" /><path
         d="m 3074.09,3852.98 c 0,0 -93.35,-193.91 -226.84,-187.4 0,0 73.3,185.54 226.84,187.4"
         style="fill:#39151a;fill-opacity:1;fill-rule:nonzero;stroke:none"
         id="path104" /><path
         d="m 2883.15,850.672 c 0,0 97.87,485.708 155.45,618.118 5.23,12.01 22.62,10.44 26.1,-2.19 13.86,-50.47 32.14,-199.19 23.99,-636.901 l 0.18,-178.918 h 384.33 l 60.18,430.589 c 3.08,33.01 126.46,572.69 -183.57,988.84 h -601.65 c 0,0 -243.22,-418.38 -276.78,-930.11 -7.47,-113.87 -10.13,-287.78 -25.62,-489.319 h 394.74 l 42.65,199.891"
         style="fill:#6645a2;fill-opacity:1;fill-rule:nonzero;stroke:none"
         id="path106" /><path
         d="m 2872.53,1547.28 197.46,-80.69"
         style="fill:none;stroke:#513689;stroke-width:19.923;stroke-linecap:butt;stroke-linejoin:miter;stroke-miterlimit:10;stroke-dasharray:none;stroke-opacity:1"
         id="path108" /><path
         d="m 2589.29,3002.33 c 0,0 -126.01,-17.91 -218.22,-333.54 l 248.3,-142.33 146.51,201.51 -176.59,274.36"
         style="fill:#5995fd;fill-opacity:1;fill-rule:nonzero;stroke:none"
         id="path110" /><path
         d="m 2619.37,2526.46 c 0,0 -164.87,-258.54 -204,-305.03 -40.46,-48.1 -101.75,-71.93 -155.04,-38.62 v 0 c -47.98,29.98 -65.75,91.23 -41.29,142.24 l 171.17,334.17 229.16,-132.76"
         style="fill:#e3745c;fill-opacity:1;fill-rule:nonzero;stroke:none"
         id="path112" /><path
         d="m 2221.23,3001.88 197.39,-642.42 -210.52,-91.54 -126.6,724.39 139.73,9.57"
         style="fill:#e3745c;fill-opacity:1;fill-rule:nonzero;stroke:none"
         id="path114" /><path
         d="m 2207.64,2969.92 30.82,29.71 c 22.6,21.78 36.6,50.97 39.45,82.22 l 7.94,87.12 c 0,0 5,45.88 -86.27,34.36 -91.26,-11.52 -96.65,-12.09 -95.58,-39.18 0,0 16.69,-37.58 75.54,-45.2 l 28.1,-149.03"
         style="fill:#e3745c;fill-opacity:1;fill-rule:nonzero;stroke:none"
         id="path116" /><path
         d="m 2092.13,2956.58 c 0,0 -90.12,49.92 -94.31,207.79 -0.49,18.17 8.53,35.43 23.72,45.42 23.39,15.39 90.76,54.09 126.9,29.35 l 63.27,-81.67 -4.07,-187.55 -115.51,-13.34"
         style="fill:#e3745c;fill-opacity:1;fill-rule:nonzero;stroke:none"
         id="path118" /><path
         d="m 2224.89,3185 50.31,254.28 c 3,15.15 -6.72,29.9 -21.83,33.12 v 0 c -15.07,3.22 -29.95,-6.25 -33.42,-21.28 l -44.4,-192.31 -21.33,-4.08 -73.71,194.59 c -5.18,13.67 -20.7,20.28 -34.14,14.53 v 0 c -11.77,-5.03 -18.04,-17.95 -14.72,-30.31 L 2104,3164.15 2224.89,3185"
         style="fill:#e3745c;fill-opacity:1;fill-rule:nonzero;stroke:none"
         id="path120" /><path
         d="m 2228.87,3205.16 c 0,0 -123.85,11.83 -124.87,-41.01 0,0 -2.66,-39.54 75.54,-45.2 0,0 -48.78,-13.7 -50.77,-68.2"
         style="fill:none;stroke:#cc5546;stroke-width:9.96152;stroke-linecap:butt;stroke-linejoin:miter;stroke-miterlimit:10;stroke-dasharray:none;stroke-opacity:1"
         id="path122" /><path
         d="m 2350.4,2581.49 52.42,-170.59"
         style="fill:none;stroke:#cc5546;stroke-width:9.96152;stroke-linecap:butt;stroke-linejoin:miter;stroke-miterlimit:10;stroke-dasharray:none;stroke-opacity:1"
         id="path124" /><path
         d="m 3435.62,2633.69 c 0,0 196.1,-689.7 271.2,-1267.69 l 126.35,23.96 c 0,0 -19.3,846.92 -146.74,1370.85 l -250.81,-127.12"
         style="fill:#e3745c;fill-opacity:1;fill-rule:nonzero;stroke:none"
         id="path126" /><path
         d="m 3832.15,1418.95 c 0,0 190.15,-280.77 -38.06,-406.98 -15.03,-8.31 -34.02,-4.92 -45.14,8.17 l -1.48,1.73 c -12.27,14.46 -10.88,35.63 2.44,49.13 32.41,32.86 76.02,100.96 6.53,189.91 0,0 -36.47,-9.31 -30.37,-81.72 1.57,-18.63 -13.91,-34.34 -32.52,-32.57 v 0 c -12.71,1.21 -23.14,10.29 -26.24,22.68 -11.96,47.73 -31.76,166.12 44.55,229.72 l 120.29,19.93"
         style="fill:#e3745c;fill-opacity:1;fill-rule:nonzero;stroke:none"
         id="path128" /><path
         d="m 3556.43,2944.77 c 0,0 180.39,-59.21 212.08,-343.52 l -293.16,-111.16 -66.03,180.32 147.11,274.36"
         style="fill:#ee2281;fill-opacity:1;fill-rule:nonzero;stroke:none"
         id="path130" /><path
         d="m 3383.25,3010.62 176.04,-66.56 -209.48,-792.31 h -601.65 l -158.87,850.58 208.6,48.42 585.36,-40.13"
         style="fill:#5995fd;fill-opacity:1;fill-rule:nonzero;stroke:none"
         id="path132" /><path
         d="m 3349.81,2070.21 h -601.65 v 81.54 h 601.65 v -81.54"
         style="fill:#1a181b;fill-opacity:1;fill-rule:nonzero;stroke:none"
         id="path134" /><path
         d="m 2666.16,2590.82 -46.79,211.77"
         style="fill:#5968fd;fill-opacity:1;stroke:#5995fd;stroke-width:19.923;stroke-linecap:butt;stroke-linejoin:miter;stroke-miterlimit:10;stroke-dasharray:none;stroke-opacity:1"
         id="path136" /><path
         d="m 3454.39,2547.32 63.21,236"
         style="fill:none;stroke:#d8186f;stroke-width:19.923;stroke-linecap:butt;stroke-linejoin:miter;stroke-miterlimit:10;stroke-dasharray:none;stroke-opacity:1"
         id="path138" /><path
         d="m 3151.67,3102.96 231.58,-92.34 c 0,0 -26.93,-91.16 -298.68,-91.16 -236.76,-0.01 -286.68,131.29 -286.68,131.29 l 224.93,52.21 h 128.85"
         style="fill:#e3745c;fill-opacity:1;fill-rule:nonzero;stroke:none"
         id="path140" /><path
         d="M 4668.91,1933.3 4920.75,645.281 h -488.17 l -187.16,851.219 -43.07,2.62 -0.65,-853.839 H 3714.97 L 3739.8,1933.3 h 929.11"
         style="fill:#5995fd;fill-opacity:1;fill-rule:nonzero;stroke:none"
         id="path142" /><path
         d="m 4119.92,1505.12 h 277.91"
         style="fill:none;stroke:#5968fd;stroke-width:19.923;stroke-linecap:butt;stroke-linejoin:miter;stroke-miterlimit:10;stroke-dasharray:none;stroke-opacity:1"
         id="path144" /><path
         d="m 4893.26,2837.35 459.38,117.47 c 91.5,25.71 145.61,119.92 121.71,211.91 v 0 c -24.62,94.78 -122.4,150.75 -216.59,124 l -459.94,-130.6 95.44,-322.78"
         style="fill:#f78f93;fill-opacity:1;fill-rule:nonzero;stroke:none"
         id="path146" /><path
         d="m 4943.87,3243.68 -448.68,-58.94 128.32,-457.96 428.47,89.2 -108.11,427.7"
         style="fill:#c79cd4;fill-opacity:1;fill-rule:nonzero;stroke:none"
         id="path148" /><path
         d="m 5158.08,3813.96 c 11.48,72 -16.43,164 -16.43,164 l 10.21,161.56 c 1.99,15.3 -7.85,29.66 -22.85,33.33 v 0 c -16.15,3.95 -32.46,-5.86 -36.55,-21.97 l -13.5,-104.33 -14.27,0.27 -19.43,167.68 c -1.49,20.39 -20.32,35.01 -40.45,31.39 v 0 c -16.75,-3.01 -28.79,-17.81 -28.34,-34.82 l 12.8,-181.5 -14.69,-2.87 -51.41,180.85 c -5.53,20.99 -27.47,33.1 -48.17,26.61 v 0 c -19.05,-5.96 -30.25,-25.63 -25.66,-45.05 l 53.1,-207.13 -18.64,-5.05 -69.74,145.47 c -8.08,16.84 -28.94,23.03 -44.92,13.33 v 0 c -12.81,-7.77 -18.4,-23.47 -13.4,-37.6 l 70.71,-193.55 -58.53,1.48 c -27.37,-0.1 -48.71,-23.78 -45.97,-51.03 v 0 c 1.94,-19.23 15.61,-35.25 34.31,-40.19 l 77.02,-18.64 c 0,0 51.95,-72.16 138.27,-103.48 0,0 177.77,66.32 186.53,121.24"
         style="fill:#f78f93;fill-opacity:1;fill-rule:nonzero;stroke:none"
         id="path150" /><path
         d="m 4826.45,3904.58 c 0,0 111.67,6.56 177.99,-56.35"
         style="fill:none;stroke:#e86270;stroke-width:9.96152;stroke-linecap:butt;stroke-linejoin:miter;stroke-miterlimit:10;stroke-dasharray:none;stroke-opacity:1"
         id="path152" /><path
         d="m 5468.24,3185.74 -310.16,628.22 -195.77,-82.38 197.25,-691.12 308.68,145.28"
         style="fill:#f78f93;fill-opacity:1;fill-rule:nonzero;stroke:none"
         id="path154" /><path
         d="m 5100.85,3246.18 30.39,-106.47"
         style="fill:none;stroke:#e86270;stroke-width:9.96152;stroke-linecap:butt;stroke-linejoin:miter;stroke-miterlimit:10;stroke-dasharray:none;stroke-opacity:1"
         id="path156" /><path
         d="m 4094.18,3209.58 -367.23,-76 12.85,-1200.28 h 929.11 l 29.15,1233.19 -349.58,30.23 -254.3,12.86"
         style="fill:#c79cd4;fill-opacity:1;fill-rule:nonzero;stroke:none"
         id="path158" /><path
         d="m 4687.7,2739.83 v 154.98"
         style="fill:none;stroke:#9a68bb;stroke-width:19.923;stroke-linecap:butt;stroke-linejoin:miter;stroke-miterlimit:10;stroke-dasharray:none;stroke-opacity:1"
         id="path160" /><path
         d="m 3975.68,2623.76 v 0 c -62.83,0 -113.76,50.93 -113.76,113.75 v 113.75 h 227.51 v -113.75 c 0,-62.82 -50.92,-113.75 -113.75,-113.75"
         style="fill:#9a68bb;fill-opacity:1;fill-rule:nonzero;stroke:none"
         id="path162" /><path
         d="m 3460.63,2828.62 -264.91,-479.73 c -46.36,-83.97 -16.97,-189.59 66.09,-237.54 h 0.01 c 82.04,-47.37 186.84,-21.3 237.15,58.96 l 275,438.78 -313.34,219.53"
         style="fill:#f78f93;fill-opacity:1;fill-rule:nonzero;stroke:none"
         id="path164" /><path
         d="m 3378.48,2761.83 380.04,-243.88 60.99,291.27 c 64.31,103.85 146.06,229.15 43.23,295.08 v 0 c -104.16,66.79 -242.76,36.31 -309.28,-68.03 l -174.98,-274.44"
         style="fill:#c79cd4;fill-opacity:1;fill-rule:nonzero;stroke:none"
         id="path166" /><path
         d="m 3733.54,2533.98 v 326.3"
         style="fill:none;stroke:#9a68bb;stroke-width:19.923;stroke-linecap:butt;stroke-linejoin:miter;stroke-miterlimit:10;stroke-dasharray:none;stroke-opacity:1"
         id="path168" /><path
         d="m 3325.98,2089.36 695.47,19.02 47.86,224.74 -786.05,99.42 42.72,-343.18"
         style="fill:#f78f93;fill-opacity:1;fill-rule:nonzero;stroke:none"
         id="path170" /><path
         d="m 3635.52,2388.18 -181.13,22.72"
         style="fill:none;stroke:#e86270;stroke-width:9.96152;stroke-linecap:butt;stroke-linejoin:miter;stroke-miterlimit:10;stroke-dasharray:none;stroke-opacity:1"
         id="path172" /><path
         d="m 4023.11,2323.92 c 0,0 88.98,120.33 193.69,0.45 l -41.64,-82.66 -152.05,82.21"
         style="fill:#f78f93;fill-opacity:1;fill-rule:nonzero;stroke:none"
         id="path174" /><path
         d="m 4127.85,2451.46 -27.49,-168.33 212.19,-23.6 33.68,161.66 c 3.63,17.43 -8.44,34.24 -26.12,36.38 l -158.61,19.17 c -16.18,1.95 -31.02,-9.2 -33.65,-25.28"
         style="fill:#1a181b;fill-opacity:1;fill-rule:nonzero;stroke:none"
         id="path176" /><path
         d="m 4067.92,2338.27 251.07,-6.24 c 29.11,-0.73 52.32,-24.52 52.32,-53.63 v 0 c 0,-20.59 -11.79,-39.37 -30.33,-48.31 l -13.43,-6.49 c 0,0 25.65,-190.1 -125.24,-212.74 -150.87,-22.63 -235.37,96.56 -235.37,96.56 l 100.98,230.85"
         style="fill:#f78f93;fill-opacity:1;fill-rule:nonzero;stroke:none"
         id="path178" /><path
         d="m 4362.38,3196.24 -3.42,379.1 h -275.27 l -6.13,-369.21 284.82,-9.89"
         style="fill:#f78f93;fill-opacity:1;fill-rule:nonzero;stroke:none"
         id="path180" /><path
         d="m 4061.04,3464.64 c -14.32,32.73 95.57,-181.31 207.77,-169.28 96.22,10.3 100.19,184.56 100.19,184.56 0,0 -34.14,-55.05 -135.69,-55.17 -113.26,-0.14 -172.27,39.89 -172.27,39.89"
         style="fill:#39151a;fill-opacity:1;fill-rule:nonzero;stroke:none"
         id="path182" /><path
         d="m 4505.5,3784.39 c -29.47,-169 -127.71,-311.23 -285.25,-311.23 -157.53,0 -265.82,140.59 -285.23,311.23 -22.02,193.61 127.7,322.21 285.23,322.21 157.54,0 315.5,-148.67 285.25,-322.21"
         style="fill:#2d131b;fill-opacity:1;fill-rule:nonzero;stroke:none"
         id="path184" /><path
         d="m 4466.8,3696.28 c 0,0 20.53,32.67 62.9,16.6 42.36,-16.07 23.19,-118.94 -40.34,-132.05 0,0 -22.79,-4.97 -40.64,10.63 0,0 15.63,75.98 18.08,104.82"
         style="fill:#f78f93;fill-opacity:1;fill-rule:nonzero;stroke:none"
         id="path186" /><path
         d="m 4521.3,3676.59 c 0,0 -35.49,11.84 -60.68,-40.42"
         style="fill:none;stroke:#181416;stroke-width:10.9822;stroke-linecap:round;stroke-linejoin:round;stroke-miterlimit:10;stroke-dasharray:none;stroke-opacity:1"
         id="path188" /><path
         d="m 3980.36,3696.28 c 0,0 -20.54,32.67 -62.89,16.6 -42.36,-16.07 -23.2,-118.94 40.34,-132.05 0,0 22.78,-4.97 40.64,10.63 0,0 -15.63,75.98 -18.09,104.82"
         style="fill:#f78f93;fill-opacity:1;fill-rule:nonzero;stroke:none"
         id="path190" /><path
         d="m 3925.87,3676.59 c 0,0 35.48,11.84 60.66,-40.42"
         style="fill:none;stroke:#181416;stroke-width:10.9822;stroke-linecap:round;stroke-linejoin:round;stroke-miterlimit:10;stroke-dasharray:none;stroke-opacity:1"
         id="path192" /><path
         d="m 4470.8,3784.93 c 0.03,-65.93 -6.8,-203.86 -49.53,-285.72 -40.13,-76.87 -106.49,-118.23 -193.5,-120.69 -69.42,-1.97 -169.4,63.11 -203.76,129.09 -51.94,99.76 -49.46,276.1 -49.46,276.1 0,0 0,235.5 245.43,235.5 258.5,0 250.82,-234.28 250.82,-234.28"
         style="fill:#f78f93;fill-opacity:1;fill-rule:nonzero;stroke:none"
         id="path194" /><path
         d="m 4136.91,3705.07 c 0,-10.47 -8.48,-18.96 -18.96,-18.96 -10.47,0 -18.97,8.49 -18.97,18.96 0,10.48 8.5,18.97 18.97,18.97 10.48,0 18.96,-8.49 18.96,-18.97"
         style="fill:#1a181b;fill-opacity:1;fill-rule:nonzero;stroke:none"
         id="path196" /><path
         d="m 4332.93,3705.07 c 0,-10.47 -8.5,-18.96 -18.97,-18.96 -10.47,0 -18.96,8.49 -18.96,18.96 0,10.48 8.49,18.97 18.96,18.97 10.47,0 18.97,-8.49 18.97,-18.97"
         style="fill:#1a181b;fill-opacity:1;fill-rule:nonzero;stroke:none"
         id="path198" /><path
         d="m 4169.29,3782.32 -134.61,-34.77 c 0,0 6.12,37.76 61.19,51.48 55.07,13.72 73.42,-16.71 73.42,-16.71"
         style="fill:#1a181b;fill-opacity:1;fill-rule:nonzero;stroke:none"
         id="path200" /><path
         d="m 4254.83,3782.32 134.61,-34.77 c 0,0 -6.12,37.76 -61.19,51.48 -55.07,13.72 -73.42,-16.71 -73.42,-16.71"
         style="fill:#1a181b;fill-opacity:1;fill-rule:nonzero;stroke:none"
         id="path202" /><path
         d="m 4198.24,3656.95 v -48.1 h 34.9"
         style="fill:none;stroke:#181416;stroke-width:10.9822;stroke-linecap:round;stroke-linejoin:round;stroke-miterlimit:10;stroke-dasharray:none;stroke-opacity:1"
         id="path204" /><path
         d="m 4325.7,3568.36 h -206.05 c 0,0 5.75,-54.17 97.68,-54.34 84.73,-0.15 108.37,54.34 108.37,54.34"
         style="fill:#ffffff;fill-opacity:1;fill-rule:nonzero;stroke:none"
         id="path206" /><path
         d="m 3980.36,3696.28 c 0,0 91.89,140.99 19.71,244.75 0,0 -45.47,-0.7 -43.87,-180.45 l 24.16,-64.3"
         style="fill:#2d131b;fill-opacity:1;fill-rule:nonzero;stroke:none"
         id="path208" /><path
         d="m 4466.77,3696.28 c 0,0 -91.89,140.99 -19.71,244.75 0,0 45.48,-0.7 43.87,-180.45 l -24.16,-64.3"
         style="fill:#2d131b;fill-opacity:1;fill-rule:nonzero;stroke:none"
         id="path210" /><path
         d="m 3975.56,3947.81 c 0,0 118.65,-134.22 363.11,-107.92 218.29,23.48 237.21,176.56 185.24,237.06 -74.26,86.47 -238.1,54.34 -325.67,-42.22 l -222.68,-86.92"
         style="fill:#2d131b;fill-opacity:1;fill-rule:nonzero;stroke:none"
         id="path212" /><path
         d="m 4077.56,3206.13 145.12,-186.63 139.7,176.74 z"
         style="fill:#f78f93;fill-opacity:1;fill-rule:nonzero;stroke:none"
         id="path214" /><path
         d="m 4077.56,3232.47 -85.62,-44.05 96.76,-193.98 96.75,72.94 -107.89,165.09"
         style="fill:#9a68bb;fill-opacity:1;fill-rule:nonzero;stroke:none"
         id="path216" /><path
         d="m 4363.11,3232.47 96.39,-45.35 -101.84,-192.68 -96,75.07 101.45,162.96"
         style="fill:#9a68bb;fill-opacity:1;fill-rule:nonzero;stroke:none"
         id="path218" /><path
         d="M 952.973,644.57 H 6488.62"
         style="fill:none;stroke:#fcf9fc;stroke-width:19.923;stroke-linecap:butt;stroke-linejoin:miter;stroke-miterlimit:10;stroke-dasharray:none;stroke-opacity:1"
         id="path220" /></g></g></svg>
