<?xml version="1.0" encoding="UTF-8" standalone="no"?>
<svg
   xmlns:dc="http://purl.org/dc/elements/1.1/"
   xmlns:cc="http://creativecommons.org/ns#"
   xmlns:rdf="http://www.w3.org/1999/02/22-rdf-syntax-ns#"
   xmlns:svg="http://www.w3.org/2000/svg"
   xmlns="http://www.w3.org/2000/svg"
   xmlns:sodipodi="http://sodipodi.sourceforge.net/DTD/sodipodi-0.dtd"
   xmlns:inkscape="http://www.inkscape.org/namespaces/inkscape"
   version="1.1"
   id="svg10"
   xml:space="preserve"
   width="907.65332"
   height="538.82666"
   viewBox="0 0 907.65332 538.82666"
   sodipodi:docname="docstudent.svg"
   inkscape:version="1.0.2 (e86c8708, 2021-01-15)"><metadata
     id="metadata16"><rdf:RDF><cc:Work
         rdf:about=""><dc:format>image/svg+xml</dc:format><dc:type
           rdf:resource="http://purl.org/dc/dcmitype/StillImage" /><dc:title /></cc:Work></rdf:RDF></metadata><defs
     id="defs14" /><sodipodi:namedview
     pagecolor="#ffffff"
     bordercolor="#666666"
     borderopacity="1"
     objecttolerance="10"
     gridtolerance="10"
     guidetolerance="10"
     inkscape:pageopacity="0"
     inkscape:pageshadow="2"
     inkscape:window-width="1792"
     inkscape:window-height="1020"
     id="namedview12"
     showgrid="false"
     inkscape:zoom="0.984867"
     inkscape:cx="291.43691"
     inkscape:cy="324.39169"
     inkscape:window-x="0"
     inkscape:window-y="23"
     inkscape:window-maximized="0"
     inkscape:current-layer="g20"
     inkscape:document-rotation="0" /><g
     id="g18"
     inkscape:groupmode="layer"
     inkscape:label="ink_ext_XXXXXX"
     transform="matrix(1.3333333,0,0,-1.3333333,0,538.82667)"><g
       id="g20"
       transform="scale(0.1)"><path
         d="m 2872.24,3294.48 -12.72,-1024.11 c -2.17,-174.16 30.24,-430.42 305.74,-421.29 238.44,25.95 301.7,251.67 303.55,414.2 0.88,77.09 1.78,141.38 2.38,149.29 0,0 261.02,21.29 283.05,279.09 10.64,124.58 11.68,382.98 9.9,616.75 -1.89,251.07 -196.59,458.46 -446.99,476.74 l -24.89,1.82 c -269.61,3.92 -423.56,-222.86 -420.02,-492.49"
         style="fill:#f8a58d;fill-opacity:1;fill-rule:nonzero;stroke:none"
         id="path170" /><path
         d="m 3471.19,2412.57 c 0,0 -163.34,2.34 -328.72,123.86 0,0 68.2,-194.46 327.37,-190.02 l 1.35,66.16"
         style="fill:#f68260;fill-opacity:1;fill-rule:nonzero;stroke:none"
         id="path172" /><path
         d="m 3323.38,3202.76 c -5.12,-5.22 -34.88,18.75 -78.09,19.91 -43.12,1.8 -75.44,-20.03 -79.98,-14.47 -2.23,2.47 3.1,12 17.18,21.89 13.87,9.85 37.32,19.13 64.22,18.21 26.9,-0.95 49.24,-11.76 61.97,-22.54 12.99,-10.84 17.22,-20.67 14.7,-23"
         style="fill:#17282f;fill-opacity:1;fill-rule:nonzero;stroke:none"
         id="path174" /><path
         d="m 3314.28,3113.42 c -0.7,-18.46 -16.89,-33.08 -36.18,-32.71 -19.24,0.37 -34.32,15.59 -33.63,34.05 0.7,18.45 16.9,33.1 36.15,32.74 19.28,-0.37 34.36,-15.62 33.66,-34.08"
         style="fill:#17282f;fill-opacity:1;fill-rule:nonzero;stroke:none"
         id="path176" /><path
         d="m 3431.58,2902.3 c -0.02,2.27 24.94,4.73 65.26,6.92 10.2,0.31 19.93,1.61 22.13,8.4 2.92,7.14 -0.51,18.37 -4.57,30.51 -7.72,25.19 -15.81,51.61 -24.3,79.29 -33.58,112.81 -57.08,205.28 -52.53,206.59 4.56,1.31 35.47,-89.06 69.03,-201.88 8.03,-27.8 15.72,-54.31 23.02,-79.66 2.99,-11.78 8.62,-25.32 2.35,-40.13 -3.28,-7.36 -11.11,-12.31 -17.72,-13.58 -6.64,-1.51 -12.36,-1.2 -17.39,-1.14 -40.35,0.78 -65.29,2.41 -65.28,4.68"
         style="fill:#17282f;fill-opacity:1;fill-rule:nonzero;stroke:none"
         id="path178" /><path
         d="m 3305.01,3365.16 c -4.18,-9.59 -38.75,-2.37 -80.16,-4.5 -41.44,-1.25 -75.44,-11.26 -80.24,-2.04 -2.12,4.4 4.32,13.22 18.4,21.77 13.95,8.54 35.77,16.02 60.62,17.06 24.83,0.98 47.09,-4.71 61.57,-12.08 14.61,-7.38 21.63,-15.66 19.81,-20.21"
         style="fill:#17282f;fill-opacity:1;fill-rule:nonzero;stroke:none"
         id="path180" /><path
         d="m 3715.22,3285.12 c -4.53,-7.82 -38.24,0.86 -79.08,2.11 -40.84,2.01 -74.74,-3.96 -79.05,4.2 -1.9,3.89 4.84,10.89 19.07,17.1 14.11,6.2 35.93,10.94 60.42,9.98 24.48,-1.01 46.13,-7.47 60.06,-14.8 14.05,-7.32 20.59,-14.86 18.58,-18.59"
         style="fill:#17282f;fill-opacity:1;fill-rule:nonzero;stroke:none"
         id="path182" /><path
         d="m 2879.36,3101.89 c -4.26,2.22 -173.47,65.38 -180.72,-111.44 -7.24,-176.82 171.77,-147.62 172.29,-142.57 0.51,5.06 8.43,254.01 8.43,254.01"
         style="fill:#f8a58d;fill-opacity:1;fill-rule:nonzero;stroke:none"
         id="path184" /><path
         d="m 2819.66,2917.09 c -0.75,0.59 -3.17,-2.03 -8.47,-4.21 -5.17,-2.11 -13.97,-3.35 -23.05,0.47 -18.39,7.63 -32.91,37.93 -32.46,69.83 0.21,16.11 4.21,31.3 10.43,43.75 5.93,12.72 14.66,21.41 24.14,22.7 9.44,1.78 15.88,-4.13 17.83,-9.19 2.17,-5.04 0.9,-8.52 1.83,-8.87 0.48,-0.46 3.91,2.81 2.78,10.17 -0.58,3.54 -2.48,7.8 -6.49,11.37 -4.11,3.62 -10.27,5.64 -16.85,5.19 -13.68,-0.38 -26.46,-12.42 -33.31,-26.09 -7.59,-13.71 -12.46,-30.76 -12.7,-48.85 -0.32,-35.68 16.55,-69.76 41.81,-78.2 12.31,-3.75 22.83,-0.43 28.36,3.53 5.66,4.14 6.75,8.06 6.15,8.4"
         style="fill:#f68260;fill-opacity:1;fill-rule:nonzero;stroke:none"
         id="path186" /><path
         d="m 3389.86,2779.87 c 1.93,4.47 -32.71,14.85 -57.07,47.34 -12.17,16 -19.19,33.44 -24.47,46.18 -5.15,12.83 -9.06,20.9 -10.97,20.3 -1.79,-0.56 -1.36,-9.25 1.48,-23.22 2.96,-13.8 8.98,-33.55 22.76,-51.72 13.58,-18.35 31.79,-29.31 45.17,-34.58 13.5,-5.47 22.63,-5.81 23.1,-4.3"
         style="fill:#17282f;fill-opacity:1;fill-rule:nonzero;stroke:none"
         id="path188" /><path
         d="m 4106.5,3539.83 c -2.8,10.38 -10.35,18.92 -19.61,24.39 -20.18,11.92 -43.43,10.33 -65.9,10.69 -68.43,1.09 -136.32,21.98 -193.88,58.94 -26.96,38.86 -57.31,75.38 -90.24,109.33 -78.14,80.58 -142.44,135.42 -208.95,162.2 -86.03,34.63 -229.91,48.67 -319.61,25.13 -89.7,-23.54 -170.26,-96.31 -182.73,-188.21 -50.31,42.53 -125.83,42.17 -187.1,17.54 l -1.54,0.67 c -68.23,-24.32 -106.99,-96.41 -127.13,-165.99 -20.13,-69.59 -28.72,-144 -65.56,-206.37 -7.71,-13.04 -16.86,-28.67 -10.13,-42.23 5.2,-10.49 18.54,-14.82 30.12,-13.12 11.59,1.7 21.87,8.11 31.77,14.37 -7.62,-18.22 -15.22,-36.44 -22.84,-54.66 24.7,-4.3 50.25,-2.32 74.23,4.95 14.49,-65.07 31.77,-139.39 48.53,-183.49 28.53,0.08 54.64,-1.96 72.22,-17.77 23.9,-21.49 34.59,-61.91 74.3,-46.57 20.21,7.81 38.65,50.22 45.42,70.8 44.89,136.65 59.79,283.01 43.57,425.91 28.26,30.13 62.37,54.75 99.87,72.08 l -3.06,-2.75 c 72.05,25.03 153.55,49.65 221.92,15.82 53.02,-26.24 84.19,-81.26 123.84,-125.17 75.14,-83.21 176.48,-128.43 288.5,-133.26 3.81,-72.59 -2.3,-175.19 1.51,-247.79 l 61.08,116.29 0.05,-0.58 c 5,8.51 9.14,17.09 13.13,25.69 l 1.38,2.61 -0.01,0.33 c 6.36,13.8 12.39,27.64 20.42,41.29 l 0.69,-0.62 c 39.34,-34.69 97.3,18.36 66.27,60.66 -6.15,8.38 -13.51,15.86 -21.92,22.03 17.97,-16.88 44.77,-24.96 68.35,-17.72 23.57,7.25 41.85,31.1 39.81,55.67 -1.41,16.78 -13.39,31.78 -28.53,38.4 31.76,-2.44 64.25,4.48 91.95,20.27 18.16,10.36 35.98,27.41 29.81,50.24"
         style="fill:#17282f;fill-opacity:1;fill-rule:nonzero;stroke:none"
         id="path190" /><path
         d="m 3106.74,3712.69 c 0.51,-0.66 -10.81,-6.81 -25.87,-23.66 -14.93,-16.76 -31.67,-45.93 -39.59,-85.62 -4.05,-19.73 -6.6,-41.8 -6.59,-65.54 -0.1,-23.75 1.81,-49.18 3.62,-75.99 1.74,-26.8 3.66,-55.11 1.94,-84.57 -0.86,-14.7 -2.63,-29.67 -5.81,-44.61 -3.25,-14.69 -7.11,-30.64 -18.2,-43.28 -8.83,-10.29 -23.6,-14.85 -36.4,-12.23 -12.88,2.28 -24.35,9.14 -32.75,18.5 -16.59,19.36 -20.73,43.93 -24.85,65.58 l 5.42,-0.66 c -8.85,-19.46 -17.92,-38.68 -31.38,-54.03 -13.23,-15.44 -31.55,-25.66 -50.17,-27.32 -9.27,-0.83 -18.63,0.65 -26.59,4.65 -8.12,3.96 -14.03,10.7 -18.07,17.8 -3.85,7.24 -5.87,15.19 -5.47,22.86 0.44,7.66 3.42,14.92 8.28,20.06 l 2.74,-2.44 c -19.9,-22.65 -40.89,-34.82 -55.4,-41.56 -7.33,-3.38 -13.2,-5.4 -17.17,-6.67 -4,-1.19 -6.11,-1.69 -6.15,-1.52 -0.06,0.17 1.94,0.98 5.81,2.47 3.84,1.58 9.54,3.88 16.65,7.49 14.08,7.21 34.41,19.69 53.47,42.17 l 2.73,-2.44 c -8.67,-9.19 -9.17,-25.34 -1.7,-38.32 3.75,-6.39 9.18,-12.39 16.33,-15.74 7.11,-3.49 15.62,-4.79 24.1,-3.93 17.1,1.7 34.18,11.28 46.56,25.96 12.69,14.67 21.49,33.38 30.22,52.87 l 3.71,8.27 1.7,-8.93 c 4.13,-21.62 8.53,-45.2 23.67,-62.65 7.51,-8.39 18.02,-14.59 29.3,-16.55 11.31,-2.18 23.23,1.54 30.94,10.37 9.69,10.93 13.66,26.03 16.8,40.48 3.13,14.58 4.9,29.24 5.78,43.7 1.78,28.96 0,57.09 -1.58,83.87 -1.66,26.79 -3.4,52.34 -3.08,76.38 0.21,24.06 3.04,46.41 7.43,66.41 8.57,40.2 26.27,69.73 42,86.29 15.89,16.64 27.62,22.08 27.62,22.08"
         style="fill:#33535f;fill-opacity:1;fill-rule:nonzero;stroke:none"
         id="path192" /><path
         d="m 3904.54,3461.76 c 0.06,-0.08 -0.63,-0.68 -2.07,-1.76 -1.74,-1.27 -3.86,-2.81 -6.44,-4.7 -2.82,-2.11 -6.39,-4.57 -10.92,-7 -4.46,-2.56 -9.53,-5.66 -15.7,-8.26 -23.94,-11.38 -62.36,-22.69 -110.38,-19.86 -47.57,2.68 -104.67,19.53 -155.64,57.48 -51.53,37.04 -96.74,91.62 -133.71,154.11 -18.76,31.23 -34.06,63.25 -50.91,92.81 -16.74,29.58 -35.23,56.93 -57.63,78.51 -22.12,21.7 -47.83,37.74 -74.3,45.1 -13.2,3.93 -26.5,4.81 -39.19,4.51 -12.72,-0.67 -24.77,-3.24 -35.88,-6.88 -22.23,-7.46 -40.16,-19.74 -53.77,-32.38 -13.65,-12.75 -22.82,-26.21 -29.1,-37.75 -11.73,-23.71 -12.38,-38.92 -13.31,-38.67 -0.11,0.02 -0.04,0.93 0.21,2.71 0.33,2.13 0.73,4.73 1.22,7.9 1.25,6.9 4.23,16.91 9.79,29.12 6.07,11.91 15.12,25.86 28.87,39.14 13.69,13.15 31.89,26.01 54.71,33.96 11.4,3.88 23.82,6.68 37.01,7.5 13.14,0.46 27.1,-0.39 40.77,-4.34 27.51,-7.42 54.1,-23.83 76.84,-45.93 23.05,-21.99 41.96,-49.81 58.9,-79.58 17.06,-29.77 32.35,-61.71 50.94,-92.65 36.7,-62.02 81.26,-115.99 131.8,-152.7 50.04,-37.61 105.79,-54.49 152.65,-57.72 47.22,-3.32 85.17,7.15 109.15,17.75 24.15,10.76 35.62,20.32 36.09,19.58"
         style="fill:#33535f;fill-opacity:1;fill-rule:nonzero;stroke:none"
         id="path194" /><path
         d="m 3928.01,3575.08 c 0.21,-0.35 -3.08,-2.62 -9.25,-6.44 -6.09,-3.93 -15.46,-8.76 -27.38,-13.91 -11.9,-5.25 -26.64,-10.14 -43.36,-14.23 -16.79,-3.8 -35.58,-6.61 -55.45,-7.36 -19.89,-0.52 -38.83,1.08 -55.82,3.79 -16.95,3.02 -31.98,6.96 -44.19,11.44 -12.23,4.37 -21.88,8.6 -28.21,12.12 -6.41,3.42 -9.84,5.47 -9.65,5.84 0.5,1.02 14.74,-6.31 39.2,-13.91 12.18,-3.9 27.05,-7.34 43.72,-10 16.72,-2.36 35.27,-3.76 54.75,-3.24 19.48,0.73 37.89,3.31 54.43,6.74 16.45,3.72 31.07,8.1 42.98,12.77 23.92,9.16 37.67,17.38 38.23,16.39"
         style="fill:#33535f;fill-opacity:1;fill-rule:nonzero;stroke:none"
         id="path196" /><path
         d="m 3717.16,3186.49 c -5.13,-5.22 -34.89,18.75 -78.1,19.91 -43.12,1.8 -75.44,-20.03 -79.98,-14.47 -2.23,2.47 3.11,12 17.18,21.89 13.88,9.85 37.32,19.13 64.22,18.22 26.89,-0.96 49.25,-11.77 61.96,-22.55 13,-10.83 17.23,-20.67 14.72,-23"
         style="fill:#17282f;fill-opacity:1;fill-rule:nonzero;stroke:none"
         id="path198" /><path
         d="m 3673.12,3100.88 c -0.69,-18.46 -16.89,-33.09 -36.18,-32.72 -19.24,0.38 -34.31,15.6 -33.62,34.05 0.68,18.45 16.88,33.1 36.14,32.74 19.28,-0.36 34.36,-15.63 33.66,-34.07"
         style="fill:#17282f;fill-opacity:1;fill-rule:nonzero;stroke:none"
         id="path200" /><path
         d="m 5284.18,2158 c 0,74.92 -71.58,74.92 -71.58,74.92 -27.28,35.83 -57.95,22.8 -57.95,22.8 l -115.91,-78.17 c -17.04,-29.32 -129.53,-140.07 -129.53,-140.07 -30.69,22.81 -30.69,68.41 -67.45,123.78 -36.76,55.37 -120.04,48.86 -120.04,48.86 0,0 64.76,-146.57 71.59,-237.77 6.82,-91.21 -49.79,-345.6 -49.79,-345.6 l 327.67,-92.09 c 0,0 20.68,139.56 57.4,150.82 44.19,13.56 68.78,78.76 68.78,78.76 47.78,96.78 144.76,237.41 158.4,309.07 13.63,71.66 -71.59,84.69 -71.59,84.69"
         style="fill:#f8a58d;fill-opacity:1;fill-rule:nonzero;stroke:none"
         id="path202" /><path
         d="m 2847.46,2319.99 c 208.71,-131.15 419.05,-180.49 632.07,-95.56 l 320.23,-81.79 315.06,-2104.9291 -1847.24,-16.0507 91.01,488.8988 229.01,1756.561 259.86,52.87"
         style="fill:#33535f;fill-opacity:1;fill-rule:nonzero;stroke:none"
         id="path204" /><path
         d="m 3799.76,2142.64 c 0,0 249.07,-103.43 344.13,-284.59 95.06,-181.17 247.84,-689.69 247.84,-689.69 l 281.42,516.84 522.32,-133.53 c 0,0 -388.78,-1072.369 -486.39,-1170.01 -106.85,-106.871 -398.05,-214.64 -540.64,-131.469 -142.59,83.168 -171.6,398.879 -171.6,398.879 l -197.08,1493.57"
         style="fill:#33535f;fill-opacity:1;fill-rule:nonzero;stroke:none"
         id="path206" /><path
         d="m 3816.93,1262.23 c -1.43,0 -2.59,93.5 -2.59,208.8 0,115.34 1.16,208.82 2.59,208.82 1.45,0 2.61,-93.48 2.61,-208.82 0,-115.3 -1.16,-208.8 -2.61,-208.8"
         style="fill:#17282f;fill-opacity:1;fill-rule:nonzero;stroke:none"
         id="path208" /><path
         d="m 3914.44,2022.36 c 0.72,-0.31 -4.32,-13.34 -12.15,-34.48 -7.84,-21.14 -18.25,-50.48 -28.43,-83.32 -10.15,-32.85 -18.14,-62.94 -23.62,-84.81 -5.48,-21.87 -8.69,-35.46 -9.45,-35.31 -0.35,0.07 0.01,3.55 0.98,9.8 0.93,6.26 2.59,15.27 4.89,26.33 4.57,22.15 12.02,52.54 22.23,85.54 10.22,32.98 21.24,62.25 29.98,83.11 4.35,10.44 8.07,18.8 10.84,24.49 2.73,5.71 4.4,8.79 4.73,8.65"
         style="fill:#17282f;fill-opacity:1;fill-rule:nonzero;stroke:none"
         id="path210" /><path
         d="M 2553.81,1478.88 2611.6,2272 c 0,0 -434.8,-40.33 -578.68,-347.08 C 1911.67,1666.42 1576.98,888.68 1541.15,782.281 1436.03,470.07 1600.25,40.8398 2277.26,65.7109 l 77.19,424.4301 199.36,988.739"
         style="fill:#33535f;fill-opacity:1;fill-rule:nonzero;stroke:none"
         id="path212" /><path
         d="m 2066.95,401.66 c -0.15,0.09 1.07,2.711 3.54,7.61 2.75,5.3 6.42,12.41 11.05,21.351 10.03,18.891 24.14,45.43 41.46,78.039 4.42,8.231 9.05,16.84 13.86,25.809 4.93,8.883 10.57,18.562 19.89,25.551 9.29,6.992 21.49,9.859 33.43,9.621 12.03,-0.141 24.06,-2.731 36.04,-5.84 24.02,-6.34 48.6,-15.27 72.76,-27.512 12.05,-6.148 23.97,-13.277 34.94,-22.258 l 4.02,-3.5 c 1.58,-1.402 2.86,-3.609 3.41,-5.371 1.3,-3.699 1.86,-7.32 2.2,-10.918 0.73,-7.203 0.65,-14.351 0.48,-21.531 -1.06,-28.68 -4.62,-56.313 -8.19,-82.949 -3.67,-26.633 -7.74,-52.231 -11.81,-76.571 -8.18,-48.679 -16.37,-92.359 -23.38,-129.011 -7.1,-36.231 -12.88,-65.731 -16.99,-86.6995 -1.95,-9.8711 -3.49,-17.7188 -4.65,-23.5703 -1.06,-5.3789 -1.56,-8.2188 -1.75,-8.1993 -0.17,0.0196 -0.01,2.918 0.72,8.3711 0.72,5.4571 1.96,13.4571 3.68,23.7578 3.72,21.0512 8.94,50.6482 15.37,87.0192 6.55,36.723 14.36,80.45 22.27,129.11 3.93,24.332 7.9,49.91 11.49,76.472 3.49,26.571 6.99,54.161 8.03,82.418 0.18,7.043 0.25,14.071 -0.44,20.86 -0.3,3.383 -0.88,6.742 -1.89,9.613 -0.56,1.559 -1.08,2.449 -2.07,3.379 l -3.82,3.34 c -10.49,8.621 -22.13,15.64 -33.95,21.699 -23.7,12.09 -48.02,21.051 -71.65,27.41 -11.82,3.141 -23.5,5.692 -34.88,5.899 -11.33,0.293 -22.37,-2.289 -30.81,-8.508 -8.45,-6.199 -13.99,-15.289 -18.94,-24.031 -4.91,-8.899 -9.62,-17.45 -14.13,-25.622 -17.94,-32.277 -32.54,-58.558 -42.92,-77.25 -4.99,-8.738 -8.95,-15.687 -11.91,-20.878 -2.77,-4.739 -4.3,-7.188 -4.46,-7.11"
         style="fill:#17282f;fill-opacity:1;fill-rule:nonzero;stroke:none"
         id="path214" /><path
         d="m 1752.55,778.441 c 0.01,0.18 1.77,0.231 5.11,0.161 3.94,-0.153 8.75,-0.332 14.59,-0.563 12.67,-0.609 30.99,-1.699 53.59,-3.789 22.59,-2.109 49.5,-5.309 78.96,-11.488 29.43,-6.133 61.44,-15.653 92.87,-30.77 31.27,-15.293 59.11,-33.82 81.7,-53.91 22.3,-20.34 39.55,-42.031 49.59,-62.684 10.15,-20.546 14.35,-38.976 15.04,-51.707 0.93,-6.332 0.17,-11.339 0.29,-14.671 -0.11,-3.348 -0.25,-5.09 -0.43,-5.09 -0.57,0 -0.37,7.07 -1.88,19.531 -1.29,12.488 -5.96,30.371 -16.29,50.25 -10.23,19.98 -27.42,40.969 -49.51,60.789 -22.38,19.559 -49.91,37.711 -80.79,52.801 -30.94,14.89 -62.48,24.429 -91.6,30.769 -29.14,6.391 -55.86,9.95 -78.33,12.52 -22.48,2.551 -40.74,4.191 -53.36,5.43 -5.81,0.621 -10.6,1.121 -14.51,1.531 -3.32,0.41 -5.05,0.711 -5.04,0.89"
         style="fill:#17282f;fill-opacity:1;fill-rule:nonzero;stroke:none"
         id="path216" /><path
         d="m 2217.77,818.48 c 0.64,-0.25 -3.34,-12.238 -10.81,-31.21 -7.44,-18.981 -18.54,-44.879 -31.27,-73.219 -12.42,-27.629 -23.66,-52.602 -32.63,-72.539 -8.32,-18.582 -13.51,-30.063 -14.2,-29.793 -0.64,0.261 3.34,12.242 10.8,31.211 7.45,18.992 18.55,44.89 31.28,73.25 12.42,27.601 23.65,52.57 32.63,72.519 8.31,18.571 13.5,30.051 14.2,29.781"
         style="fill:#17282f;fill-opacity:1;fill-rule:nonzero;stroke:none"
         id="path218" /><path
         d="m 2458.39,1442.71 c -1.44,0 -2.6,50.27 -2.6,112.27 0,62.03 1.16,112.29 2.6,112.29 1.43,0 2.6,-50.26 2.6,-112.29 0,-62 -1.17,-112.27 -2.6,-112.27"
         style="fill:#17282f;fill-opacity:1;fill-rule:nonzero;stroke:none"
         id="path220" /><path
         d="m 1942.17,238.969 c -7.09,0 -13.93,2.39 -18.49,7.773 -8.21,9.688 -6.02,24.188 -2.75,36.457 31.06,116.41 107.71,219.711 221.07,260.071 -1.86,-2.938 -3.54,-5.911 -5.14,-8.801 -4.81,-8.969 -9.44,-17.578 -13.86,-25.809 -17.32,-32.609 -31.43,-59.148 -41.46,-78.039 -2.26,-4.371 -4.3,-8.301 -6.11,-11.801 -29.42,-49.511 -59.69,-96.582 -90.38,-145.679 -6.93,-11.102 -14.26,-22.59 -25.46,-29.332 -5.15,-3.098 -11.38,-4.84 -17.42,-4.84"
         style="fill:#20353d;fill-opacity:1;fill-rule:nonzero;stroke:none"
         id="path222" /><path
         d="m 2075.43,418.82 c 1.81,3.5 3.85,7.43 6.11,11.801 10.03,18.891 24.14,45.43 41.46,78.039 4.42,8.231 9.05,16.84 13.86,25.809 1.6,2.89 3.28,5.863 5.14,8.801 0.62,0.218 1.24,0.441 1.86,0.66 -22.12,-44.731 -45,-85.688 -68.43,-125.11"
         style="fill:#0f191d;fill-opacity:1;fill-rule:nonzero;stroke:none"
         id="path224" /><path
         d="m 2125.02,622.922 c -10.34,18.34 -26.04,37.269 -45.65,55.16 -22.59,20.09 -50.43,38.617 -81.7,53.91 -31.43,15.117 -63.44,24.637 -92.87,30.77 -29.46,6.179 -56.37,9.379 -78.96,11.488 -22.6,2.09 -40.92,3.18 -53.59,3.789 -5.84,0.231 -10.65,0.41 -14.59,0.563 -0.96,0.019 -1.79,0.027 -2.48,0.027 -1.72,0 -2.62,-0.059 -2.63,-0.188 -0.01,-0.179 1.72,-0.48 5.04,-0.89 3.72,-0.391 8.24,-0.871 13.67,-1.442 -9.46,0.442 -18.89,0.68 -28.22,0.68 -36.76,0 -72.03,-3.699 -102.1,-13.109 7.8,25.64 48.86,43.679 84.55,51.179 21.53,4.532 43.3,7.43 65.21,7.43 4.78,0 9.58,-0.141 14.38,-0.43 68.3,-4.129 137.09,-18.398 196.89,-51.64 55.24,-30.707 100.98,-87.43 123.05,-147.297"
         style="fill:#20353d;fill-opacity:1;fill-rule:nonzero;stroke:none"
         id="path226" /><path
         d="m 2128.8,611.809 c -47.28,75.742 -116.12,123.761 -200.88,142.281 -45.44,9.93 -101.64,19.441 -156.66,22.019 -5.43,0.571 -9.95,1.051 -13.67,1.442 -3.32,0.41 -5.05,0.711 -5.04,0.89 0.01,0.129 0.91,0.188 2.63,0.188 0.69,0 1.52,-0.008 2.48,-0.027 3.94,-0.153 8.75,-0.332 14.59,-0.563 12.67,-0.609 30.99,-1.699 53.59,-3.789 22.59,-2.109 49.5,-5.309 78.96,-11.488 29.43,-6.133 61.44,-15.653 92.87,-30.77 31.27,-15.293 59.11,-33.82 81.7,-53.91 19.61,-17.891 35.31,-36.82 45.65,-55.16 1.35,-3.66 2.6,-7.32 3.77,-10.992 0,-0.051 0,-0.09 0.01,-0.121"
         style="fill:#0f191d;fill-opacity:1;fill-rule:nonzero;stroke:none"
         id="path228" /><path
         d="m 2128.86,611.719 v 0 c -0.02,0.031 -0.04,0.062 -0.06,0.09 -0.01,0.031 -0.01,0.07 -0.01,0.121 0.02,-0.071 0.04,-0.141 0.07,-0.211"
         style="fill:#0f191d;fill-opacity:1;fill-rule:nonzero;stroke:none"
         id="path230" /><path
         d="m 2394.42,1780.45 c -0.35,-0.07 -1.75,4.4 -3.98,12.52 -2.14,8.15 -5.62,19.84 -10.34,34.1 -9.38,28.55 -25.13,67.17 -48.33,106.72 -23.32,39.51 -49.43,72.03 -69.83,94.09 -10.18,11.06 -18.71,19.78 -24.79,25.6 -6.02,5.9 -9.25,9.3 -9.01,9.57 0.24,0.26 3.92,-2.62 10.38,-8.08 6.53,-5.38 15.49,-13.75 26.09,-24.56 21.23,-21.56 48.09,-54.07 71.64,-93.97 23.45,-39.96 38.82,-79.22 47.36,-108.25 4.3,-14.51 7.26,-26.42 8.8,-34.74 1.63,-8.31 2.36,-12.92 2.01,-13"
         style="fill:#17282f;fill-opacity:1;fill-rule:nonzero;stroke:none"
         id="path232" /><path
         d="M 2554.12,21.9922 2069.62,1190.92 c -22.11,53.34 5.62,96.58 61.95,96.58 h 97.48 c 39.77,0 66.88,21.91 69.44,56.12 l 3.23,42.98 c 2.58,34.21 29.73,56.11 69.55,56.11 h 463.18 c 36.11,0 76.89,-18.04 107.25,-47.45 l 37.6,-36.43 c 30.35,-29.4 71.1,-47.45 107.17,-47.45 h 589.93 c 56.33,0 119.41,-43.24 140.88,-96.58 L 4297.59,21.9922 H 2554.12"
         style="fill:#f2575d;fill-opacity:1;fill-rule:nonzero;stroke:none"
         id="path234" /><path
         d="M 4297.59,21.9922 H 3083.31 c 12.2,0.0078 30.27,0.1484 49.85,0.3398 l 1164.43,-0.3398"
         style="fill:#cc4341;fill-opacity:1;fill-rule:nonzero;stroke:none"
         id="path236" /><path
         d="m 3079.77,21.9922 h -525.65 l -0.9,2.1562 -196.79,474.7926 -0.14,0.329 -286.67,691.65 c -5.14,12.4 -7.59,24.25 -7.61,35.14 -0.06,35.97 26.32,61.44 69.56,61.44 h 97.48 c 39.77,0 66.88,21.91 69.44,56.12 l 3.23,42.98 c 2.58,34.21 29.73,56.11 69.55,56.11 h 463.18 c 36.11,0 76.89,-18.04 107.25,-47.45 l 37.6,-36.43 c 30.35,-29.4 71.1,-47.45 107.17,-47.45 h 589.93 c 47.31,0 99.38,-30.5 127.56,-71.86 H 2563.25 c -19.36,0 -36.73,-8.04 -49.11,-20.86 h -161.99 c -42.4,0 -72.86,-46.67 -60.83,-93.2 l 182.72,-706.48 86.65,-338.7378 c 0.7,-2.7227 1.53,-5.3711 2.47,-7.9336 l -6.51,-42.3477 -2.53,-7.4687 463.66,-0.1328 c 20.65,-0.2891 41.32,-0.3477 61.99,-0.3672"
         style="fill:#006680;fill-opacity:1;fill-rule:nonzero;stroke:none"
         id="path238" /><path
         d="m 2474.04,418.98 -182.72,706.48 c -12.03,46.53 18.43,93.2 60.83,93.2 h 1432.27 c 28.32,0 53.21,-21.48 61,-52.62 L 4111.41,102.66 c 11.68,-46.6991 -7,-74.6991 -49.45,-74.1717 L 2620.89,28.0508 c -27.92,0.3476 -52.36,21.5312 -60.2,52.1914 L 2474.04,418.98"
         style="fill:#dadbd8;fill-opacity:1;fill-rule:nonzero;stroke:none"
         id="path240" /><path
         d="M 2573.03,53.9492 2495.19,1166.53 c -2.76,39.46 28.51,72.99 68.06,72.99 h 1484 V 53.9492 H 2573.03"
         style="fill:#e7e8e5;fill-opacity:1;fill-rule:nonzero;stroke:none"
         id="path242" /><path
         d="M 2556.42,28.4883 2732.97,1175.46 c 8.14,37.37 41.77,64.06 80.69,64.06 h 1501.23 c 59.31,0 99.25,-59.57 75.79,-113.05 L 4066.52,76.8203 2556.42,28.4883"
         style="fill:#fafaf9;fill-opacity:1;fill-rule:nonzero;stroke:none"
         id="path244" /><path
         d="M 2554.12,22.4922 2918.21,1096.71 c 15.16,44.76 55.74,74.68 101.25,74.68 h 1547.65 c 49.88,0 85.04,-51.04 69.12,-100.34 L 4297.59,21.9922 l -1743.47,0.5"
         style="fill:#00aad4;fill-opacity:1;fill-rule:nonzero;stroke:none"
         id="path246" /><path
         d="m 3081.5,21.9805 c -0.59,0 -1.17,0.0117 -1.73,0.0117 v 0 h 3.54 c -0.62,0 -1.22,-0.0117 -1.81,-0.0117"
         style="fill:#a7a9a8;fill-opacity:1;fill-rule:nonzero;stroke:none"
         id="path248" /><path
         d="m 3083.31,21.9922 h -3.54 c -20.67,0.0195 -41.34,0.0781 -61.99,0.3672 L 3133.16,22.332 C 3113.58,22.1406 3095.51,22 3083.31,21.9922"
         style="fill:#862b2c;fill-opacity:1;fill-rule:nonzero;stroke:none"
         id="path250" /><path
         d="m 2585.71,218.75 c -0.41,27.531 4.71,55.859 12.64,82.16 l -12.64,-82.16"
         style="fill:#979999;fill-opacity:1;fill-rule:nonzero;stroke:none"
         id="path252" /><path
         d="m 2599,154.922 c -9.01,19.758 -12.97,41.539 -13.29,63.828 l 12.64,82.16 c 0.12,0.399 0.24,0.801 0.36,1.192 21.54,70.488 61.21,135.207 113.57,187.039 L 2599,154.922"
         style="fill:#a4a6a5;fill-opacity:1;fill-rule:nonzero;stroke:none"
         id="path254" /><path
         d="m 3302.4,202.352 -403.65,60.679 -156.71,90.18 c -20.66,11.871 -34.78,33.129 -36.03,56.918 l -0.06,1.34 c -1.23,29.722 16.94,56.761 44.35,68.312 49.72,20.949 128.48,48.821 162.07,107.66 48.27,84.571 0,102.11 0,102.11 L 2575.29,554.801 2336.68,392.41 2288.67,121.621 2621.6,12.8711 c 0,0 370.99,-20.90235 473.36,-9.42188 102.37,11.49218 102.37,59.16018 102.37,59.16018 19,5.9492 57.44,39.6996 57.42,71.1406 49.68,46.609 47.65,68.602 47.65,68.602"
         style="fill:#f8a58d;fill-opacity:1;fill-rule:nonzero;stroke:none"
         id="path258" /><path
         d="m 2786.11,85.7891 c 0.13,0.4609 6.06,-0.6875 16.63,-3.168 10.55,-2.5703 25.9,-5.9609 44.91,-9.75 37.99,-7.6289 91.07,-15.5391 150.14,-17.9102 59.1,-2.25 112.64,1.5079 151.12,6.168 19.24,2.293 34.81,4.4805 45.52,6.2109 10.74,1.6524 16.73,2.3399 16.82,1.8711 0.1,-0.4609 -5.71,-2.039 -16.33,-4.5 -10.59,-2.539 -26.1,-5.4687 -45.37,-8.4023 -38.52,-5.918 -92.46,-10.4766 -152.03,-8.207 -59.54,2.3672 -112.96,11.1289 -150.89,20.0273 -18.99,4.4102 -34.22,8.543 -44.58,11.9102 -10.4,3.2695 -16.07,5.3125 -15.94,5.75"
         style="fill:#f68260;fill-opacity:1;fill-rule:nonzero;stroke:none"
         id="path260" /><path
         d="m 2822.97,148.199 c 0.13,0.461 6.15,-0.719 16.88,-3.219 10.71,-2.589 26.3,-5.968 45.62,-9.691 38.62,-7.527 92.58,-14.969 152.58,-16.867 60.03,-1.774 114.36,2.25 153.42,7.039 19.54,2.359 35.33,4.598 46.21,6.359 10.89,1.68 16.97,2.391 17.07,1.93 0.1,-0.461 -5.8,-2.059 -16.58,-4.559 -10.76,-2.57 -26.5,-5.55 -46.05,-8.543 -39.09,-6.058 -93.81,-10.878 -154.28,-9.089 -60.45,1.902 -114.77,10.171 -153.35,18.972 -19.31,4.348 -34.8,8.469 -45.33,11.871 -10.56,3.309 -16.32,5.348 -16.19,5.797"
         style="fill:#f68260;fill-opacity:1;fill-rule:nonzero;stroke:none"
         id="path262" /><path
         d="m 5203.64,1641.23 -717.2,-141.65 c -49.56,-9.79 -97.66,22.46 -107.46,72.02 l -196.06,992.68 c -9.79,49.57 22.45,97.68 72.01,107.47 l 454.84,89.83 423.76,-293.35 142.12,-719.53 c 9.79,-49.57 -22.45,-97.68 -72.01,-107.47"
         style="fill:#e7e8e5;fill-opacity:1;fill-rule:nonzero;stroke:none"
         id="path264" /><path
         d="m 4709.77,2761.58 55.19,-279.38 c 9.1,-46.09 53.84,-76.08 99.93,-66.99 l 268.64,53.02 -423.76,293.35"
         style="fill:#f3f2f1;fill-opacity:1;fill-rule:nonzero;stroke:none"
         id="path266" /><path
         d="m 4773.47,2458.41 c 0,0 9.85,-68.46 91.38,-75.51 3.07,-0.26 6.17,-0.3 9.23,-0.24 36.31,0.66 275.33,5.19 274.29,10.49 -1.13,5.74 -14.84,75.08 -14.84,75.08 l -268.63,-53.06 c 0,0 -67.53,-10.95 -91.43,43.24"
         style="fill:#dadbd8;fill-opacity:1;fill-rule:nonzero;stroke:none"
         id="path268" /><path
         d="m 5203.64,1641.23 c 0,0 1.29,0.44 3.87,1.15 2.6,0.61 6.42,1.71 11.29,3.68 9.65,3.82 23.96,11.3 37.03,26.98 12.61,15.43 23.93,40.29 19.71,69.76 -5.25,29.05 -12.39,62.52 -19.76,100.04 -29.89,150.2 -72.68,365.21 -124.37,624.97 l 0.89,-1.37 c -128.25,88.67 -271.28,187.55 -423.94,293.09 l 1.9,-0.4 c -84.32,-16.68 -172.12,-34.04 -262.45,-51.91 -45.16,-8.93 -90.96,-17.99 -137.28,-27.14 -11.59,-2.29 -23.2,-4.58 -34.84,-6.88 -11.63,-2.48 -23.53,-4.02 -34.27,-8.1 -21.75,-8.03 -40.05,-25.14 -49.65,-46.49 -6.72,-14.81 -9.37,-31.5 -7.2,-47.55 2.52,-16.1 6.25,-32.58 9.3,-48.78 6.41,-32.5 12.79,-64.78 19.11,-96.83 12.64,-64.09 25.11,-127.25 37.35,-189.31 24.46,-124.12 48.06,-243.85 70.54,-357.9 11.23,-57.03 22.17,-112.65 32.81,-166.68 5.31,-27.01 10.55,-53.64 15.7,-79.85 2.58,-13.1 5.14,-26.1 7.67,-38.99 2.76,-12.89 4.26,-25.92 9.14,-37.51 9.51,-23.47 29.37,-41.69 52.27,-49.9 11.45,-4.16 23.64,-5.89 35.57,-5.16 11.82,0.83 23.76,3.93 35.53,6.05 47.08,9.23 92.28,18.1 135.41,26.57 172.48,33.71 312.07,60.99 408.68,79.87 48.19,9.31 85.63,16.53 111.16,21.46 12.64,2.38 22.3,4.2 28.94,5.45 6.52,1.21 9.89,1.68 9.89,1.68 0,0 -3.3,-0.83 -9.79,-2.2 -6.61,-1.37 -16.24,-3.36 -28.83,-5.96 -25.5,-5.15 -62.87,-12.69 -110.98,-22.41 -96.53,-19.27 -236.01,-47.11 -408.36,-81.51 -43.11,-8.56 -88.28,-17.54 -135.35,-26.9 -11.81,-2.14 -23.46,-5.25 -36.05,-6.19 -12.48,-0.79 -25.25,0.99 -37.24,5.33 -23.99,8.55 -44.81,27.57 -54.84,52.17 -5.19,12.36 -6.68,25.57 -9.46,38.3 -2.55,12.89 -5.12,25.89 -7.73,38.99 -5.2,26.2 -10.47,52.82 -15.82,79.83 -10.71,54.01 -21.73,109.61 -33.03,166.62 -22.57,114.04 -46.27,233.75 -70.83,357.85 -12.27,62.05 -24.75,125.21 -37.43,189.3 -6.34,32.05 -12.72,64.33 -19.13,96.82 -3.09,16.36 -6.73,32.32 -9.37,49.15 -2.28,16.98 0.51,34.67 7.62,50.34 10.16,22.59 29.53,40.71 52.57,49.21 11.63,4.37 23.55,5.85 35.1,8.33 11.64,2.29 23.25,4.59 34.83,6.87 46.32,9.15 92.13,18.19 137.3,27.1 90.34,17.82 178.14,35.13 262.48,51.76 l 1.03,0.21 0.87,-0.61 c 152.52,-105.72 295.43,-204.79 423.57,-293.61 l 0.74,-0.5 0.16,-0.87 c 50.95,-259.91 93.11,-475.03 122.57,-625.34 7.2,-37.59 14.12,-70.92 19.21,-100.26 4.1,-30.12 -7.66,-55.34 -20.61,-70.85 -13.42,-15.77 -28,-23.12 -37.8,-26.77 -4.94,-1.88 -8.82,-2.88 -11.45,-3.38 -2.61,-0.6 -3.95,-0.82 -3.95,-0.82"
         style="fill:#17282f;fill-opacity:1;fill-rule:nonzero;stroke:none"
         id="path270" /><path
         d="m 5133.53,2468.23 c 0.04,-0.17 -2.3,-0.82 -6.79,-1.88 -5.01,-1.11 -11.55,-2.57 -19.69,-4.38 -17.73,-3.71 -42.39,-8.86 -72.61,-15.17 -30.87,-6.26 -67.37,-13.66 -107.82,-21.85 -20.35,-4.02 -41.68,-8.24 -63.8,-12.61 -22.83,-4.06 -48.21,1.77 -67.73,16.86 -9.79,7.47 -17.86,16.92 -23.62,27.45 -5.93,10.39 -8.79,22.41 -10.65,33.32 -4.31,22.1 -8.47,43.43 -12.44,63.77 -7.78,40.53 -14.83,77.11 -20.76,108.04 -5.65,30.35 -10.26,55.11 -13.57,72.93 -1.41,8.21 -2.56,14.82 -3.43,19.87 -0.72,4.56 -1.02,6.97 -0.85,7 0.18,0.04 0.83,-2.3 1.88,-6.8 1.12,-5.01 2.58,-11.54 4.39,-19.68 3.71,-17.74 8.86,-42.39 15.18,-72.61 6.26,-30.86 13.67,-67.37 21.87,-107.82 4.06,-20.32 8.33,-41.63 12.74,-63.71 1.97,-11.23 4.55,-21.86 10.19,-31.83 5.43,-9.89 13.03,-18.77 22.23,-25.8 18.39,-14.2 42.21,-19.72 63.73,-15.96 22.08,4.26 43.39,8.37 63.71,12.29 40.53,7.78 77.1,14.81 108.04,20.75 30.35,5.64 55.12,10.24 72.93,13.55 8.21,1.42 14.81,2.55 19.88,3.42 4.55,0.73 6.97,1.03 6.99,0.85"
         style="fill:#17282f;fill-opacity:1;fill-rule:nonzero;stroke:none"
         id="path272" /><path
         d="m 4745.47,2509.6 c 0.27,-1.41 -84.21,-19.28 -188.68,-39.92 -104.52,-20.64 -189.44,-36.22 -189.72,-34.81 -0.27,1.4 84.19,19.28 188.7,39.92 104.48,20.63 189.41,36.22 189.7,34.81"
         style="fill:#17282f;fill-opacity:1;fill-rule:nonzero;stroke:none"
         id="path274" /><path
         d="m 4952.52,2405.69 c 0.28,-1.41 -124.4,-27.22 -278.44,-57.65 -154.1,-30.43 -279.2,-53.95 -279.48,-52.54 -0.27,1.41 124.37,27.21 278.47,57.65 154.04,30.43 279.18,53.95 279.45,52.54"
         style="fill:#17282f;fill-opacity:1;fill-rule:nonzero;stroke:none"
         id="path276" /><path
         d="m 4980.05,2266.32 c 0.28,-1.41 -124.41,-27.22 -278.45,-57.65 -154.09,-30.43 -279.2,-53.95 -279.47,-52.54 -0.28,1.41 124.37,27.22 278.47,57.65 154.04,30.43 279.17,53.95 279.45,52.54"
         style="fill:#17282f;fill-opacity:1;fill-rule:nonzero;stroke:none"
         id="path278" /><path
         d="m 4449.66,2016.76 c -0.29,1.41 124.39,27.22 278.44,57.65 154.1,30.43 279.19,53.95 279.48,52.54 0.27,-1.41 -124.38,-27.22 -278.48,-57.65 -154.03,-30.43 -279.17,-53.95 -279.44,-52.54"
         style="fill:#17282f;fill-opacity:1;fill-rule:nonzero;stroke:none"
         id="path280" /><path
         d="m 5035.1,1987.58 c 0.28,-1.4 -124.4,-27.22 -278.44,-57.64 -154.1,-30.44 -279.2,-53.96 -279.48,-52.55 -0.28,1.41 124.37,27.22 278.47,57.65 154.05,30.43 279.17,53.96 279.45,52.54"
         style="fill:#17282f;fill-opacity:1;fill-rule:nonzero;stroke:none"
         id="path282" /><path
         d="m 5062.63,1848.22 c 0.28,-1.42 -124.4,-27.23 -278.44,-57.65 -154.1,-30.44 -279.2,-53.96 -279.48,-52.55 -0.29,1.41 124.37,27.22 278.46,57.66 154.05,30.42 279.18,53.94 279.46,52.54"
         style="fill:#17282f;fill-opacity:1;fill-rule:nonzero;stroke:none"
         id="path284" /><path
         d="m 4765.41,1755.72 -526.33,-103.95 c -22.87,-4.52 -45.08,10.36 -49.59,33.23 l -37.7,190.88 c -4.52,22.87 10.36,45.08 33.24,49.59 l 526.33,103.96 c 22.87,4.52 45.07,-10.36 49.59,-33.23 l 37.7,-190.88 c 4.51,-22.87 -10.37,-45.08 -33.24,-49.6"
         style="fill:#0088aa;fill-opacity:1;fill-rule:nonzero;stroke:none"
         id="path286" /><path
         d="m 4372.84,1783 c 20.54,4.06 31.56,18.98 27.65,38.78 -3.91,19.8 -19.78,29.41 -40.31,25.34 l -21.87,-4.31 12.67,-64.12 z m -62.35,74.73 46.98,9.28 c 33.85,6.69 61.06,-9.13 67.25,-40.44 6.19,-31.33 -12.98,-56.3 -46.82,-62.99 l -46.98,-9.28 -20.43,103.43"
         style="fill:#ffffff;fill-opacity:1;fill-rule:nonzero;stroke:none"
         id="path288" /><path
         d="m 4525.16,1846.4 c -3.88,19.65 -20.42,30.35 -38.89,26.71 -18.47,-3.65 -29.71,-19.84 -25.83,-39.49 3.89,-19.65 20.44,-30.35 38.9,-26.7 18.47,3.64 29.7,19.83 25.82,39.48 z m -88.95,-17.57 c -6.06,30.72 13.38,58.21 46.03,64.66 32.51,6.42 61.05,-11.43 67.15,-42.3 6.1,-30.89 -13.51,-58.25 -46.02,-64.66 -32.65,-6.46 -61.09,11.57 -67.16,42.3"
         style="fill:#ffffff;fill-opacity:1;fill-rule:nonzero;stroke:none"
         id="path290" /><path
         d="m 4560.89,1853.46 c -6.15,31.18 13.38,58.2 45.58,64.57 17.88,3.53 34.09,-0.02 46.18,-9.91 l -12.57,-17.22 c -8.52,6.6 -18.06,9.03 -28.4,6.98 -19.35,-3.82 -30.41,-20.13 -26.56,-39.63 3.85,-19.51 20.28,-30.38 39.64,-26.57 10.34,2.05 18.24,7.9 23.58,17.4 l 18.17,-11.15 c -7.39,-13.89 -21.03,-23.34 -39.06,-26.89 -32.06,-6.34 -60.4,11.25 -66.56,42.42"
         style="fill:#ffffff;fill-opacity:1;fill-rule:nonzero;stroke:none"
         id="path292" /><path
         d="m 5090.83,2379.95 c 0,0 52.97,67.06 93.76,29.56 40.79,-37.5 29.02,-56.8 -9.77,-116.07 0,0 86.6,4.55 58.82,-84.39 0,0 86.28,9.54 77.99,-63.24 0,0 65.15,-63.75 31.26,-104.84 -33.88,-41.09 -156.75,-115.27 -187.79,-102.52 -31.04,12.76 -31.28,56.72 -31.28,56.72 0,0 -36.92,16.63 -47.11,36.08 -10.2,19.45 7.3,46.71 7.3,46.71 0,0 -31.12,31.8 -38.83,40.68 -7.7,8.88 4.21,50.13 4.21,50.13 l 49.7,48.22 c 0,0 -68.42,-29.74 -82.68,-18.4 -14.25,11.34 -30.34,21.15 -15.07,41.83 15.26,20.69 69.54,66.98 69.54,66.98 l 19.95,72.55"
         style="fill:#f8a58d;fill-opacity:1;fill-rule:nonzero;stroke:none"
         id="path294" /><path
         d="m 5130.73,1990.1 c -0.76,0.87 8.42,10.59 22.42,27.23 14.07,16.25 34,40.38 63.22,57.89 28.58,17.49 54.85,31.58 71.03,45.67 16.53,13.66 23.01,25.64 24.23,24.92 0.84,-0.24 -4.07,-13.79 -20.33,-29.25 -15.84,-15.8 -42.5,-31.15 -70.53,-48.31 -28.15,-16.85 -47.95,-39.4 -63.32,-54.87 -15.18,-15.71 -25.99,-24.14 -26.72,-23.28"
         style="fill:#f68260;fill-opacity:1;fill-rule:nonzero;stroke:none"
         id="path296" /><path
         d="m 5082.81,2065.14 c -1.61,1.61 30.19,35.96 71.01,76.69 20.5,20.06 38.06,39.55 53.19,51.48 14.87,12.23 26.23,16.68 26.63,15.74 0.6,-1.12 -9.32,-7.15 -22.78,-20.13 -13.69,-12.63 -30.5,-32.64 -51.22,-52.93 -40.82,-40.73 -75.23,-72.46 -76.83,-70.85"
         style="fill:#f68260;fill-opacity:1;fill-rule:nonzero;stroke:none"
         id="path298" /><path
         d="m 5099.09,2216.99 c -1.62,2.05 18.02,17.65 39.82,38.41 22.16,20.64 32.98,42.68 35.07,41.87 2.36,-0.52 -6.06,-26.11 -29.31,-47.76 -22.68,-21.58 -44.43,-34.05 -45.58,-32.52"
         style="fill:#f68260;fill-opacity:1;fill-rule:nonzero;stroke:none"
         id="path300" /><path
         d="m 5090.85,2380.18 c 0.15,-0.07 -0.16,-1.75 -0.88,-4.96 -0.9,-3.7 -2.02,-8.35 -3.42,-14.13 -3.35,-12.98 -8.01,-31 -13.92,-53.93 l -0.14,-0.51 -0.43,-0.38 c -10,-8.79 -21.22,-18.89 -33.36,-30.31 -11.79,-11.55 -25.98,-23.96 -36.93,-39.46 -2.42,-3.91 -4.21,-8.29 -3.76,-12.54 0.44,-4.23 3.06,-8.21 6.67,-11.69 3.53,-3.52 7.84,-6.68 12.18,-10.07 3.57,-3.08 8.32,-3.04 13.8,-2.73 21.6,2.53 44.32,11.38 67.12,20.81 l 16.01,6.62 -12.36,-12.08 c -15.64,-15.28 -32.28,-31.54 -49.52,-48.39 l 0.76,1.06 c -6.28,-15.36 -10.27,-34.82 -2.55,-50.33 8.6,-15.42 23.9,-28.43 39.19,-39.94 l 3.37,-2.53 -2.72,-3.2 c -10.81,-12.78 -18.48,-32.96 -4.34,-45.43 12.61,-13.06 29.86,-23.13 46.93,-32.1 l -5.82,-3.22 0.09,0.96 0.02,0.28 0.01,-0.08 c 1.02,-1.2 -2.32,2.87 2.36,-3.52 11.16,5.28 3.23,2.18 5.66,3.04 v -0.06 l -0.09,-1.89 0.04,-4.05 c 0.11,-2.71 0.36,-5.45 0.77,-8.15 0.77,-5.41 2.19,-10.71 4.28,-15.68 2.15,-4.93 5.04,-9.49 8.8,-13.17 3.76,-3.61 8.4,-6.86 12.84,-7.37 10.14,-1.13 21.89,2.56 32.73,6.44 11.01,4.06 21.83,9.14 32.51,14.62 20.21,10.47 39.51,22.33 57.84,34.99 18.18,12.76 35.91,26.14 50.59,41.52 7.52,7.61 12.43,16.03 13.14,26.04 0.91,9.78 -1.54,19.81 -5.32,29.14 -7.77,18.72 -20.56,35.33 -34.06,49.48 l -1.23,1.29 0.1,1.92 c 0.48,9.78 0.91,19.84 -2.93,28.43 -3.37,8.65 -9.58,15.8 -17.43,20.61 -15.88,9.55 -35.77,11.33 -53.39,10.22 l -4.98,-0.32 1.19,4.91 c 1.31,5.41 2.85,10.74 3.97,16.07 0.33,5.34 1.86,10.71 1.24,15.9 0.33,10.53 -3.06,20.49 -8.93,28.16 -12.24,15.49 -33.64,20.2 -51.54,20.17 l -5.8,-0.01 3.09,4.71 c 10.34,15.71 20.38,30.6 27.89,45.48 3.61,7.46 6.41,15.04 7.09,22.52 0.75,7.48 -1.1,14.68 -4.44,20.97 -7.1,12.2 -17.28,22.88 -27.23,29.58 -10.57,6.45 -22.65,6.21 -32.37,3.31 -19.73,-6.23 -32.11,-18.1 -40.27,-25.21 -4.09,-3.72 -6.99,-6.8 -9.01,-8.81 -1.99,-2.06 -2.97,-3.06 -3.11,-3 -0.14,0.06 0.69,1.35 2.45,3.58 1.8,2.23 4.51,5.52 8.45,9.48 3.88,4.01 8.95,8.76 15.52,13.69 6.51,4.95 14.63,10.19 25,13.5 10.13,3.34 23.59,3.96 35.44,-2.99 2.71,-1.98 5.46,-4 8.29,-6.06 2.45,-2.35 4.95,-4.74 7.5,-7.17 4.75,-5.23 9.92,-10.62 13.59,-17.61 3.79,-6.82 6.07,-15.18 5.33,-23.67 -0.66,-8.48 -3.63,-16.67 -7.29,-24.49 -7.62,-15.55 -17.56,-30.58 -27.75,-46.43 l -2.69,4.69 c 10.11,0.26 20.12,-1.09 30.17,-4.3 9.91,-3.24 19.86,-8.87 26.91,-17.84 6.98,-8.88 10.85,-20.6 10.58,-32.08 0.68,-5.83 -0.86,-11.45 -1.22,-17.27 -1.13,-5.66 -2.7,-11.27 -4.07,-16.99 l -3.79,4.59 c 19.18,1.27 39.66,-0.2 58.07,-10.93 9.02,-5.41 16.63,-13.98 20.61,-24.18 4.49,-10.21 4.07,-21.36 3.54,-32.09 l -1.14,3.2 c 14.38,-14.98 27.45,-31.72 36,-51.98 4.11,-10.09 7.01,-21.28 5.98,-32.95 -0.46,-5.87 -2.37,-11.49 -4.82,-16.91 -3.14,-5.06 -6.44,-10.01 -10.4,-13.89 -15.47,-16.24 -33.35,-29.71 -51.84,-42.72 -18.6,-12.89 -38.14,-24.9 -58.74,-35.57 -10.89,-5.61 -21.96,-10.8 -33.45,-15.02 -11.53,-3.97 -23.2,-8.2 -36.77,-6.85 -14.38,3.06 -22.82,14.16 -27.93,25.45 -2.43,5.76 -3.99,11.73 -4.84,17.73 -0.44,3 -0.71,6 -0.82,9.02 l -0.04,4.54 0.12,2.39 0.05,0.48 0.01,0.13 c 2.44,0.89 -5.48,-2.18 5.7,3.11 4.7,-6.36 1.35,-2.31 2.38,-3.54 l -0.01,-0.34 -0.04,-0.79 -0.11,-1.17 -0.54,-6.04 -5.29,2.81 c -17.83,9.5 -35.02,19.35 -49.18,34 -3.38,3.8 -6.69,8.13 -8.43,13.49 -1.74,5.29 -1.67,10.89 -0.68,15.98 2.18,10.28 7.18,18.79 13.51,26.46 l 0.65,-5.72 c -16.03,12.31 -31.36,25 -41.36,42.85 -4.73,9.35 -5.62,19.83 -4.58,29.36 1.03,9.68 3.52,18.66 7.28,27.39 l 0.26,0.57 0.5,0.5 c 17.36,16.72 34.11,32.86 49.87,48.03 l 3.65,-5.45 c -23.48,-9.43 -45.93,-18.15 -69.33,-20.7 -5.55,-0.4 -12.88,-0.23 -17.87,4.15 -4.24,3.39 -8.64,6.66 -12.59,10.67 -3.92,3.88 -7.54,9.03 -8.1,15.16 -0.52,6.11 1.98,11.5 4.73,15.88 12.18,16.69 26.22,28.33 38.38,39.92 12.4,11.27 23.82,21.15 34.08,29.76 l -0.57,-0.89 c 6.67,22.85 11.9,40.81 15.68,53.73 1.74,5.65 3.15,10.19 4.26,13.8 1.01,3.07 1.59,4.61 1.74,4.54"
         style="fill:#f68260;fill-opacity:1;fill-rule:nonzero;stroke:none"
         id="path302" /></g></g></svg>
