<?xml version="1.0" encoding="UTF-8" standalone="no"?>
<svg
   xmlns:dc="http://purl.org/dc/elements/1.1/"
   xmlns:cc="http://creativecommons.org/ns#"
   xmlns:rdf="http://www.w3.org/1999/02/22-rdf-syntax-ns#"
   xmlns:svg="http://www.w3.org/2000/svg"
   xmlns="http://www.w3.org/2000/svg"
   xmlns:sodipodi="http://sodipodi.sourceforge.net/DTD/sodipodi-0.dtd"
   xmlns:inkscape="http://www.inkscape.org/namespaces/inkscape"
   version="1.1"
   id="svg10"
   xml:space="preserve"
   width="466.61758"
   height="382.19965"
   viewBox="0 0 466.61758 382.19965"
   sodipodi:docname="Authority.svg"
   inkscape:version="1.0.2 (e86c8708, 2021-01-15)"><metadata
     id="metadata16"><rdf:RDF><cc:Work
         rdf:about=""><dc:format>image/svg+xml</dc:format><dc:type
           rdf:resource="http://purl.org/dc/dcmitype/StillImage" /><dc:title /></cc:Work></rdf:RDF></metadata><defs
     id="defs14"><clipPath
       clipPathUnits="userSpaceOnUse"
       id="clipPath30"><path
         d="M 6950,300 H 680 V 4560 H 6950 V 300 M 882.898,4474.5 c -65.043,0 -117.769,-52.73 -117.769,-117.77 V 643.262 c 0,-65.043 52.726,-117.77 117.769,-117.77 H 6607.35 c 65.05,0 117.78,52.727 117.78,117.77 V 4356.73 c 0,65.04 -52.73,117.77 -117.78,117.77 H 882.898"
         id="path28" /></clipPath></defs><sodipodi:namedview
     pagecolor="#ffffff"
     bordercolor="#666666"
     borderopacity="1"
     objecttolerance="10"
     gridtolerance="10"
     guidetolerance="10"
     inkscape:pageopacity="0"
     inkscape:pageshadow="2"
     inkscape:window-width="1792"
     inkscape:window-height="1120"
     id="namedview12"
     showgrid="false"
     fit-margin-top="0"
     fit-margin-left="0"
     fit-margin-right="0"
     fit-margin-bottom="0"
     inkscape:zoom="1.2826544"
     inkscape:cx="268.48542"
     inkscape:cy="142.90636"
     inkscape:window-x="0"
     inkscape:window-y="0"
     inkscape:window-maximized="0"
     inkscape:current-layer="g20"
     inkscape:document-rotation="0" /><g
     id="g18"
     inkscape:groupmode="layer"
     inkscape:label="ink_ext_XXXXXX"
     transform="matrix(1.3333333,0,0,-1.3333333,-396.89256,518.97432)"><g
       id="g20"
       transform="scale(0.1)"><path
         d="m 5843.79,1055.81 h -48.08 c 59.1,34.01 103.18,94.4 116.01,168.04 l 0.3,1.75 c 27.95,165.29 -16.85,306.28 -28.03,468.37 -10.57,153.45 35.24,282.49 60.66,428.65 22.62,130.07 15.08,277.39 -13.31,405.23 -38.77,174.53 -128.05,336.14 -256.67,434.66 -102.49,78.5 -222.5,112.14 -344.88,112.14 -116.95,0 -236.05,-30.69 -344.23,-82.3 -92.74,-44.23 -182.55,-103.08 -281.86,-117.97 -17.81,-2.67 -35.57,-3.88 -53.27,-3.88 -126.25,0 -249.9,61.93 -373.65,101.01 -87.92,27.76 -179.8,43.76 -270.95,43.76 -107.97,0 -214.92,-22.43 -313.18,-74.34 -205.47,-108.55 -351.56,-353.58 -334.5,-623.45 7.74,-122.28 47.3,-242.97 33.3,-364.44 -14.2,-123.22 -75.73,-226.29 -108.3,-342.33 -44.45,-158.38 -48.5,-391.15 22.97,-551.85 l 218.98,-3.05 h -312.23 -73.06 c -91.41,145.88 -156.09,235.15 -162.99,522.19 -6.92,288.11 273.93,666.9 312.39,790.56 37.93,121.93 -82.24,348.58 -70.42,477.24 26.11,283.93 244.84,497.92 511.62,554.57 56.12,11.92 113.25,17.48 170.78,17.48 183.66,0 371.02,-56.7 539.55,-144.14 162.59,-84.35 319.89,-199.43 498.48,-216.22 16.06,-1.51 32.04,-2.19 47.98,-2.19 105.57,0 208.73,29.96 312.62,47.89 64.34,11.11 130.68,16.98 197.37,16.98 229.29,0 462.39,-69.47 629.22,-234.62 138.19,-136.82 217.98,-328.29 234.58,-519.42 12.14,-140 -4.25,-294.51 -54.07,-423 -55.96,-144.36 -200.62,-272.08 -147.37,-427.17 0.66,-1.95 1.32,-3.88 1.96,-5.8 74.52,-222.78 -88.22,-454.35 -317.72,-454.35"
         style="fill:#edeaf7;fill-opacity:1;fill-rule:nonzero;stroke:none"
         id="path92" /><path
         d="m 3074.34,2295.31 c -22.25,0 -44.2,22.9 -55.43,47.75 -17.52,38.78 -3.91,86.26 30.42,106.05 13.82,7.97 32.75,12.47 51.58,12.47 27.95,0 55.68,-9.91 66.15,-33.07 17.53,-38.78 -35.31,-71.89 -56.9,-107.94 -10.81,-18.07 -23.36,-25.26 -35.82,-25.26"
         style="fill:#e9e6f5;fill-opacity:1;fill-rule:nonzero;stroke:none"
         id="path94" /><path
         d="m 4633.91,3664.53 c -52.95,0 -67.48,65.52 -56.55,118.84 12.34,60.16 65.81,105.12 122.44,105.12 3.66,0 7.32,-0.19 10.99,-0.57 60.56,-6.3 141.08,-67.7 127.94,-131.75 -13.14,-64.04 -108.72,-57.62 -168.08,-83.05 -13.87,-5.93 -26.09,-8.59 -36.74,-8.59"
         style="fill:#e9e6f5;fill-opacity:1;fill-rule:nonzero;stroke:none"
         id="path96" /><path
         d="m 6341.66,1446.67 c -14.51,0 -27.93,3.93 -38.76,13.05 -42.02,35.4 4.81,111.67 11.95,170.33 5.48,44.98 29.5,61.64 57,61.64 22.53,0 47.38,-11.17 66.3,-27.11 42.02,-35.39 50.68,-102.57 19.34,-150.03 -23.26,-35.24 -74.02,-67.88 -115.83,-67.88"
         style="fill:#e9e6f5;fill-opacity:1;fill-rule:nonzero;stroke:none"
         id="path98" /><path
         d="m 6156.91,3102.74 c -31.35,0 -63.11,11.65 -86.49,34.42 -42.95,41.82 -71.16,134.37 -26.21,170.88 9.71,7.89 20.59,11.1 32.27,11.1 42.33,0 95.21,-42.26 141.69,-57.14 82.73,-26.47 56.34,-97.97 11.39,-134.47 -20.48,-16.63 -46.42,-24.79 -72.65,-24.79"
         style="fill:#e9e6f5;fill-opacity:1;fill-rule:nonzero;stroke:none"
         id="path100" /><path
         d="m 5244.35,3168.21 c -31.38,0 -71.34,20.74 -104.08,23.25 -69.12,5.28 -62.35,83.34 -34.52,131.24 17.82,30.66 47.18,47.39 76.83,47.39 16.66,0 33.41,-5.29 48.26,-16.35 41.25,-30.76 80.79,-115.88 52.96,-163.78 -9.45,-16.27 -23.32,-21.75 -39.45,-21.75"
         style="fill:#e9e6f5;fill-opacity:1;fill-rule:nonzero;stroke:none"
         id="path102" /><path
         d="m 5684.05,1025.81 c -1.04,0 -2.08,0.01 -3.11,0.02 l -2155.84,29.98 h 1883.06 387.55 c -33.4,-19.21 -71.59,-30 -111.66,-30"
         style="fill:#e8e4f4;fill-opacity:1;fill-rule:nonzero;stroke:none"
         id="path104" /><path
         d="M 5795.71,1055.81 H 3525.1 l -218.98,3.05 c -71.47,160.7 -67.42,393.47 -22.97,551.85 32.57,116.04 94.1,219.11 108.3,342.33 14,121.47 -25.56,242.16 -33.3,364.44 -17.06,269.87 129.03,514.9 334.5,623.45 98.26,51.91 205.21,74.34 313.18,74.34 91.15,0 183.03,-16 270.95,-43.76 123.75,-39.08 247.4,-101.01 373.65,-101.01 17.7,0 35.46,1.21 53.27,3.88 99.31,14.89 189.12,73.74 281.86,117.97 108.18,51.61 227.28,82.3 344.23,82.3 122.38,0 242.39,-33.64 344.88,-112.14 128.62,-98.52 217.9,-260.13 256.67,-434.66 28.39,-127.84 35.93,-275.16 13.31,-405.23 -25.42,-146.16 -71.23,-275.2 -60.66,-428.65 11.18,-162.09 55.98,-303.08 28.03,-468.37 l -0.3,-1.75 c -12.83,-73.64 -56.91,-134.03 -116.01,-168.04 M 4225.57,2322.96 c -28.32,0 -56.44,-2.91 -84.07,-9.13 -131.31,-29.6 -238.99,-141.41 -251.83,-289.76 -5.83,-67.21 53.33,-185.63 34.66,-249.33 -18.94,-64.62 -157.19,-262.52 -153.78,-413.05 3.4,-149.97 35.24,-196.62 80.23,-272.83 h 35.97 969.21 318.02 c 117.03,0 201.1,120.41 164.23,237.38 -0.31,1.01 -0.63,2.01 -0.96,3.03 -26.21,81.03 45,147.76 72.54,223.19 24.53,67.13 32.59,147.86 26.62,221.01 -8.17,99.86 -47.45,199.89 -115.47,271.37 -82.12,86.29 -196.87,122.59 -309.73,122.59 -32.83,0 -65.49,-3.07 -97.16,-8.88 -51.14,-9.36 -101.91,-25.02 -153.88,-25.02 -7.85,0 -15.72,0.36 -23.63,1.15 -87.91,8.77 -165.34,68.89 -245.38,112.97 -82.96,45.68 -175.18,75.31 -265.59,75.31"
         style="fill:#dfdaf0;fill-opacity:1;fill-rule:nonzero;stroke:none"
         id="path106" /><path
         d="m 5173.98,1088.86 h -1323.2 c -44.99,76.21 -76.83,122.86 -80.23,272.83 -3.41,150.53 134.84,348.43 153.78,413.05 18.67,63.7 -40.49,182.12 -34.66,249.33 12.84,148.35 120.52,260.16 251.83,289.76 27.63,6.22 55.75,9.13 84.07,9.13 90.41,0 182.63,-29.63 265.59,-75.31 80.04,-44.08 157.47,-104.2 245.38,-112.97 7.91,-0.79 15.78,-1.15 23.63,-1.15 51.97,0 102.74,15.66 153.88,25.02 31.67,5.81 64.33,8.88 97.16,8.88 112.86,0 227.61,-36.3 309.73,-122.59 68.02,-71.48 107.3,-171.51 115.47,-271.37 5.97,-73.15 -2.09,-153.88 -26.62,-221.01 -27.54,-75.43 -98.75,-142.16 -72.54,-223.19 0.33,-1.02 0.65,-2.02 0.96,-3.03 36.87,-116.97 -47.2,-237.38 -164.23,-237.38"
         style="fill:#d4cfec;fill-opacity:1;fill-rule:nonzero;stroke:none"
         id="path108" /><path
         d="m 4976.91,1811.89 c 24.85,634.19 -548.07,709.05 -548.07,709.05 l -0.03,-2.61 -52.09,13.39 -209.65,-99.43 -207.14,139.66 -284.47,-61.23 c 0,0 -410.73,-100.28 -396.2,-614.13 0.29,-10.22 7.72,-18.88 17.81,-20.62 l 169.68,-172.68 62.68,-475.12 c -28.65,-58.72 -77.36,-172.36 -77.36,-172.36 h 1446.67 l 78.17,756.08"
         style="fill:#5995fd;fill-opacity:1;fill-rule:nonzero;stroke:none"
         id="path110" /><path
         d="m 4398.9,2520.94 -223.5,-83.07 -240.06,128.79 21.74,-1510.85 h 481.7 l -39.88,1465.13"
         style="fill:#ebd4bd;fill-opacity:1;fill-rule:nonzero;stroke:none"
         id="path112" /><path
         d="m 4196.19,1052.97 c -2.71,0 -4.94,2.18 -5,4.9 l -27.39,1381.87 c -0.06,2.76 2.14,5.04 4.9,5.09 2.83,-0.03 5.04,-2.14 5.1,-4.9 l 27.39,-1381.86 c 0.05,-2.77 -2.14,-5.04 -4.9,-5.1 h -0.1"
         style="fill:#2b2b43;fill-opacity:1;fill-rule:nonzero;stroke:none"
         id="path114" /><path
         d="m 4261.28,2269.38 c -9.41,0 -17.08,-7.66 -17.08,-17.08 0,-9.41 7.67,-17.08 17.08,-17.08 9.41,0 17.08,7.67 17.08,17.08 0,9.42 -7.67,17.08 -17.08,17.08 z m 0,-44.16 c -14.93,0 -27.08,12.15 -27.08,27.08 0,14.94 12.15,27.08 27.08,27.08 14.93,0 27.08,-12.14 27.08,-27.08 0,-14.93 -12.15,-27.08 -27.08,-27.08"
         style="fill:#2b2b43;fill-opacity:1;fill-rule:nonzero;stroke:none"
         id="path116" /><path
         d="m 4278.13,1974.37 c -9.42,0 -17.09,-7.67 -17.09,-17.08 0,-9.42 7.67,-17.08 17.09,-17.08 9.41,0 17.08,7.66 17.08,17.08 0,9.41 -7.67,17.08 -17.08,17.08 z m 0,-44.16 c -14.94,0 -27.09,12.14 -27.09,27.08 0,14.93 12.15,27.08 27.09,27.08 14.93,0 27.08,-12.15 27.08,-27.08 0,-14.94 -12.15,-27.08 -27.08,-27.08"
         style="fill:#2b2b43;fill-opacity:1;fill-rule:nonzero;stroke:none"
         id="path118" /><path
         d="m 4305.5,1318.93 c -9.42,0 -17.08,-7.67 -17.08,-17.08 0,-9.42 7.66,-17.08 17.08,-17.08 9.41,0 17.08,7.66 17.08,17.08 0,9.41 -7.67,17.08 -17.08,17.08 z m 0,-44.16 c -14.93,0 -27.08,12.14 -27.08,27.08 0,14.93 12.15,27.08 27.08,27.08 14.93,0 27.08,-12.15 27.08,-27.08 0,-14.94 -12.15,-27.08 -27.08,-27.08"
         style="fill:#2b2b43;fill-opacity:1;fill-rule:nonzero;stroke:none"
         id="path120" /><path
         d="m 4573.7,3338.65 c 52.6,42.29 57.24,125.77 3.04,172.9 -72.37,62.94 -188.57,123.89 -342.52,76.05 27.49,105.66 -49.57,162.2 -138.39,157.22 -17.32,-0.96 -35.78,-4.28 -54.97,-10.97 0,0 -2.55,160.87 -134.01,158.43 0,0 -99.02,1.72 -92.19,-149.32 0,0 -69.5,50.98 -140.42,10.58 -40.69,-23.19 -64.18,-69.78 -60.55,-116.46 2.49,-32.08 14.36,-72.85 48.7,-116.43 0,0 -87.06,-50.33 -33.15,-128.15 43.85,-63.31 142.39,-36.71 142.39,-36.71 0,0 -61.52,-80 -15.95,-122.22 v -0.01 c -18.67,-28.58 -25.76,-64.47 -18.59,-98.59 6.96,-33.07 24.86,-73.91 66.55,-114.62 0,0 -83.82,-64.25 -17.11,-137.96 54.26,-59.97 153.27,-18.88 153.27,-18.88 0,0 -53.19,-91.67 0,-129.44 53.19,-37.78 138.09,-11.86 243.84,105.71 24.82,27.59 46.17,52.38 64.5,74.33 26.87,7.1 56.72,17.9 89.74,32.98 136.94,62.59 202.28,105.52 202.28,105.52 183.37,129.19 136.62,249.79 33.54,286.04"
         style="fill:#201715;fill-opacity:1;fill-rule:nonzero;stroke:none"
         id="path122" /><path
         d="m 4539.08,3051.86 c -0.89,-0.63 -2.2,-1.55 -3.46,-2.45 0.92,0.66 2.08,1.47 3.46,2.45"
         style="fill:#201715;fill-opacity:1;fill-rule:nonzero;stroke:none"
         id="path124" /><path
         d="m 4540.16,3052.61 -1.08,-0.75 1.08,0.75"
         style="fill:#201715;fill-opacity:1;fill-rule:nonzero;stroke:none"
         id="path126" /><path
         d="m 4535.62,3049.41 c -5.87,-4.14 -3.2,-2.24 0,0"
         style="fill:#201715;fill-opacity:1;fill-rule:nonzero;stroke:none"
         id="path128" /><path
         d="m 4217.97,3339.11 c -28.09,-25.44 -62.13,-43.21 -98.65,-51.91 -22.51,-74.05 -62.24,-129.2 -102.5,-135.64 l -34.61,7.7 -62.92,-1.32 c -64.46,-1.34 -116.09,-55.18 -114.75,-119.63 l 0.06,-2.68 c 1.35,-64.45 55.19,-116.09 119.64,-114.74 l 47.03,0.98 -16.57,-371.77 c -0.75,-106.04 103.06,-167.19 210.8,-167.95 l 4.47,-0.03 c 107.74,-0.76 196.49,85.37 197.24,191.41 l 0.65,92.71 c 123.31,18.94 211.5,141.97 199.02,281.8 l -32.94,369.07 c -31.62,-12.87 -70.19,-24.4 -117.16,-32.42 -80.44,-13.74 -146.84,13.89 -198.81,54.42"
         style="fill:#ffb380;fill-opacity:1;fill-rule:nonzero;stroke:none"
         id="path130" /><path
         d="m 4498.82,3076.56 c 0.29,-12.53 -9.64,-22.93 -22.17,-23.23 -12.54,-0.28 -22.94,9.64 -23.23,22.18 -0.29,12.54 9.64,22.93 22.18,23.23 12.53,0.28 22.93,-9.64 23.22,-22.18"
         style="fill:#201715;fill-opacity:1;fill-rule:nonzero;stroke:none"
         id="path132" /><path
         d="m 4263.81,3071.91 c 0.29,-12.54 -9.64,-22.94 -22.17,-23.23 -12.54,-0.29 -22.94,9.64 -23.23,22.17 -0.28,12.54 9.64,22.94 22.18,23.23 12.54,0.29 22.93,-9.64 23.22,-22.17"
         style="fill:#201715;fill-opacity:1;fill-rule:nonzero;stroke:none"
         id="path134" /><path
         d="m 4242.55,3158.63 -2.56,-0.04 c -25.14,-0.73 -48.61,-12.38 -64.42,-31.96 -12.87,-15.92 -19.64,-35.99 -19.04,-56.49 0.67,-22.96 10.23,-44.29 26.94,-60.06 16.7,-15.75 38.64,-23.97 61.51,-23.41 22.96,0.67 44.29,10.23 60.05,26.94 15.77,16.71 24.08,38.55 23.41,61.51 v 0.01 c -0.67,22.96 -10.23,44.28 -26.94,60.05 -16.08,15.18 -36.93,23.45 -58.95,23.45 z m -0.14,-192 c -27.15,0 -52.84,10.2 -72.67,28.91 -20.59,19.43 -32.39,45.71 -33.21,74.02 -0.73,25.27 7.61,50.01 23.48,69.64 19.47,24.13 48.42,38.48 79.39,39.38 28.49,0.82 55.24,-9.43 75.83,-28.85 20.59,-19.44 32.39,-45.72 33.21,-74.03 0.82,-28.29 -9.43,-55.22 -28.86,-75.81 -19.43,-20.6 -45.72,-32.39 -74.01,-33.21 -1.06,-0.03 -2.11,-0.05 -3.16,-0.05"
         style="fill:#fbc851;fill-opacity:1;fill-rule:nonzero;stroke:none"
         id="path136" /><path
         d="m 4506.69,3169.25 -2.53,-0.04 c -22.97,-0.67 -44.3,-10.23 -60.06,-26.94 -15.77,-16.7 -24.08,-38.55 -23.41,-61.51 0.67,-22.96 10.23,-44.29 26.94,-60.05 16.7,-15.76 38.54,-24.08 61.51,-23.42 47.4,1.38 84.84,41.05 83.47,88.46 v -0.01 c -1.35,46.55 -39.66,83.51 -85.92,83.51 z m -0.12,-192 c -27.15,0 -52.84,10.2 -72.67,28.91 -20.59,19.43 -32.39,45.72 -33.21,74.02 -0.82,28.3 9.43,55.23 28.86,75.82 19.43,20.59 45.72,32.38 74.02,33.2 58.6,1.78 107.33,-44.45 109.04,-102.87 v -0.01 c 1.69,-58.41 -44.47,-107.33 -102.88,-109.02 -1.06,-0.03 -2.11,-0.05 -3.16,-0.05"
         style="fill:#fbc851;fill-opacity:1;fill-rule:nonzero;stroke:none"
         id="path138" /><path
         d="m 4348.02,2966.42 c 20.46,-0.66 36.82,-4.26 55.14,8.52 12.28,8.56 22.63,23.27 25.09,38.65 2.78,17.35 -9.75,33.49 -27.13,36.08 l -11.07,1.64 c -1.79,0.27 -3.17,1.69 -3.39,3.47 l -13.57,109.45"
         style="fill:#da5544;fill-opacity:1;fill-rule:nonzero;stroke:none"
         id="path140" /><path
         d="m 4370.34,2955.46 c -4.47,0 -8.89,0.26 -13.28,0.51 -3.04,0.17 -6.15,0.35 -9.36,0.46 -5.52,0.17 -9.86,4.79 -9.67,10.31 0.16,5.41 4.61,9.68 9.98,9.68 h 0.33 c 3.39,-0.11 6.67,-0.3 9.86,-0.48 15.5,-0.9 26.71,-1.53 39.24,7.2 10.81,7.54 19.03,20.11 20.94,32.03 0.88,5.48 -0.5,11.04 -3.87,15.64 -3.53,4.81 -8.94,8.09 -14.86,8.97 l -11.08,1.64 c -6.18,0.91 -11.05,5.89 -11.83,12.11 L 4363.16,3163 c -0.68,5.48 3.22,10.48 8.7,11.16 5.48,0.72 10.47,-3.21 11.15,-8.7 l 13.02,-104.92 6.57,-0.98 c 11.16,-1.66 21.38,-7.84 28.04,-16.93 6.56,-8.95 9.21,-19.82 7.49,-30.61 -2.77,-17.28 -13.97,-34.63 -29.24,-45.28 -13.38,-9.33 -26.16,-11.28 -38.55,-11.28"
         style="fill:#ffb380;fill-opacity:1;fill-rule:nonzero;stroke:none"
         id="path142" /><path
         d="m 4342.79,3080.64 -11.95,16.03 c 15.6,11.66 53.77,27.12 86.59,2.11 l -12.11,-15.9 c -28.93,22.02 -61.17,-1.24 -62.53,-2.24"
         style="fill:#fbc851;fill-opacity:1;fill-rule:nonzero;stroke:none"
         id="path144" /><path
         d="m 3965.28,3168.32 177.26,-49.53"
         style="fill:#ffffff;fill-opacity:1;fill-rule:nonzero;stroke:none"
         id="path146" /><path
         d="m 4142.55,3108.79 c -0.9,0 -1.8,0.12 -2.71,0.38 l -177.25,49.52 c -5.31,1.49 -8.42,7 -6.94,12.32 1.49,5.33 7.02,8.4 12.33,6.94 l 177.25,-49.53 c 5.32,-1.48 8.42,-7 6.94,-12.32 -1.23,-4.42 -5.26,-7.31 -9.62,-7.31"
         style="fill:#fbc851;fill-opacity:1;fill-rule:nonzero;stroke:none"
         id="path148" /><path
         d="m 4400.69,2793.45 c -0.99,-0.33 -2.11,-0.34 -3.17,0.05 -1.07,0.41 -26.76,9.7 -43.98,-11.13 -1.66,-2.01 -4.62,-2.3 -6.65,-0.64 -2.02,1.67 -2.3,4.64 -0.64,6.66 21.61,26.12 54.29,14.08 54.62,13.95 2.43,-0.92 3.65,-3.64 2.73,-6.08 -0.51,-1.38 -1.62,-2.37 -2.91,-2.81"
         style="fill:#ba3b2e;fill-opacity:1;fill-rule:nonzero;stroke:none"
         id="path150" /><path
         d="m 4175.81,3184.38 c 8.49,-2.09 18.57,0.62 28.47,2.68 9.92,2.29 19.93,4.33 28.7,5.8 8.79,1.48 18.92,2.83 29.05,3.92 10.02,1.3 20.49,2.05 27.72,6.78 7,4.46 8.52,14.1 -2.29,23.83 -10.22,9.51 -34.14,17.71 -63.22,12.88 -29.02,-4.95 -48.58,-20.47 -54.8,-32.75 -6.67,-12.67 -1.79,-21.24 6.37,-23.14"
         style="fill:#201715;fill-opacity:1;fill-rule:nonzero;stroke:none"
         id="path152" /><path
         d="m 4560.89,3201.73 c -8.22,-2.97 -18.54,-1.33 -28.6,-0.33 -10.1,1.22 -20.28,2.2 -29.15,2.74 -8.89,0.54 -19.13,0.82 -29.3,0.83 -10.11,0.23 -20.59,-0.13 -28.28,3.81 -7.43,3.7 -9.97,13.12 -0.24,23.93 9.15,10.55 32.08,21.23 61.51,19.5 29.37,-1.87 50.46,-15.23 57.94,-26.79 7.97,-11.9 4.04,-20.93 -3.88,-23.69"
         style="fill:#201715;fill-opacity:1;fill-rule:nonzero;stroke:none"
         id="path154" /><path
         d="m 4236.98,2943.61 c 8.05,6.39 19.5,5.95 27.65,-0.33 14.83,-11.44 46.67,-31.28 89.96,-32.03 10.62,-0.19 17.1,-11.99 13.38,-21.95 -8.17,-21.89 -32.07,-56.61 -89.71,-35.28 -70.22,25.98 -62.27,72.93 -41.28,89.59"
         style="fill:#ffffff;fill-opacity:1;fill-rule:nonzero;stroke:none"
         id="path156" /><path
         d="m 4367.86,2666.24 c 0,0 -230.17,-6.75 -268.1,75.34 -37.93,82.09 0,0 0,0 0,0 -16.86,-152.36 266.92,-181.06 l 1.18,105.72"
         style="fill:#ff9955;fill-opacity:1;fill-rule:nonzero;stroke:none"
         id="path158" /><path
         d="m 3909.13,2997.32 c -3.32,0 -6.56,1.65 -8.46,4.66 -2.96,4.67 -1.56,10.84 3.11,13.8 l 28.72,18.17 -32.57,37.26 c -3.63,4.16 -3.21,10.47 0.95,14.11 4.13,3.62 10.48,3.22 14.11,-0.95 l 40.25,-46.05 c 1.93,-2.21 2.79,-5.14 2.37,-8.02 -0.42,-2.89 -2.08,-5.46 -4.55,-7.02 l -38.6,-24.41 c -1.65,-1.05 -3.5,-1.55 -5.33,-1.55"
         style="fill:#ba3b2e;fill-opacity:1;fill-rule:nonzero;stroke:none"
         id="path160" /><path
         d="m 3869.97,2916.67 c -0.68,-9.04 2.21,-17.81 8.13,-24.69 5.91,-6.89 14.17,-11.05 23.23,-11.74 18.46,-1.34 35.04,12.65 36.45,31.33 0.69,9.05 -2.2,17.81 -8.12,24.69 -5.92,6.89 -14.17,11.05 -23.23,11.74 -18.53,1.37 -35.04,-12.64 -36.46,-31.33 z m 33.95,-56.52 c -1.36,0 -2.72,0.05 -4.1,0.15 -14.38,1.09 -27.49,7.7 -36.89,18.63 -9.4,10.93 -13.98,24.87 -12.9,39.25 2.23,29.68 28.1,52.06 57.9,49.76 14.38,-1.08 27.49,-7.7 36.89,-18.63 9.41,-10.93 13.99,-24.87 12.9,-39.25 -2.12,-28.3 -25.85,-49.91 -53.8,-49.91"
         style="fill:#fbc851;fill-opacity:1;fill-rule:nonzero;stroke:none"
         id="path162" /><path
         d="m 4168.3,2336.99 v 81.07 c 0,117.31 -107.33,212.4 -239.74,212.4 0,0 -100.65,-290.23 239.74,-293.47"
         style="fill:#efeee5;fill-opacity:1;fill-rule:nonzero;stroke:none"
         id="path164" /><path
         d="m 4167.03,2336.99 v 81.07 c 0,117.31 107.34,212.4 239.74,212.4 0,0 100.64,-290.23 -239.74,-293.47"
         style="fill:#efeee5;fill-opacity:1;fill-rule:nonzero;stroke:none"
         id="path166" /><path
         d="M 5585.69,2697.91 H 4505.87 c 129.8,0 235.03,-127.31 235.03,-284.35 V 1229.74 c 0,-101.44 67.97,-183.67 151.81,-183.67 h 1031 v 1242.9 c 0,225.85 -151.34,408.94 -338.02,408.94"
         style="fill:#ffffff;fill-opacity:1;fill-rule:nonzero;stroke:none"
         id="path168" /><path
         d="m 6147.61,1342.77 -927.42,-1.35 h -161.1 l 0.67,-105.95 c 0.56,-91.88 -66.45,-170.43 -153.41,-187.51 -2.14,-0.42 9.63,-0.62 20.93,-0.88 15.97,-0.38 28.67,-0.04 28.67,-0.04 l 844.15,-0.97 c 1.08,0 2.13,0.16 3.2,0.18 l 157.9,-0.18 c 103.96,0.64 187.72,85.44 187.07,189.4 l -0.66,107.3"
         style="fill:#2b2b43;fill-opacity:1;fill-rule:nonzero;stroke:none"
         id="path170" /><path
         d="m 5764.29,2196.89 h -829.94 c -2.77,0 -5,2.24 -5,5 0,2.77 2.23,5 5,5 h 829.94 c 2.76,0 5,-2.23 5,-5 0,-2.76 -2.24,-5 -5,-5"
         style="fill:#131a2f;fill-opacity:1;fill-rule:nonzero;stroke:none"
         id="path172" /><path
         d="m 5550.49,2363.45 h -438.06 c -8.28,0 -15,6.72 -15,15 0,8.28 6.72,15 15,15 h 438.06 c 8.28,0 15,-6.72 15,-15 0,-8.28 -6.72,-15 -15,-15"
         style="fill:#8b88cc;fill-opacity:1;fill-rule:nonzero;stroke:none"
         id="path174" /><path
         d="m 5408.35,1850.54 h -474 c -2.77,0 -5,2.23 -5,5 0,2.76 2.23,5 5,5 h 474 c 2.76,0 5,-2.24 5,-5 0,-2.77 -2.24,-5 -5,-5"
         style="fill:#131a2f;fill-opacity:1;fill-rule:nonzero;stroke:none"
         id="path176" /><path
         d="m 5205.48,2034.46 h -271.13 c -2.77,0 -5,2.24 -5,5 0,2.77 2.23,5 5,5 h 271.13 c 2.76,0 5,-2.23 5,-5 0,-2.76 -2.24,-5 -5,-5"
         style="fill:#131a2f;fill-opacity:1;fill-rule:nonzero;stroke:none"
         id="path178" /><path
         d="m 5447.08,2034.46 h -140.25 c -2.77,0 -5,2.24 -5,5 0,2.77 2.23,5 5,5 h 140.25 c 2.76,0 5,-2.23 5,-5 0,-2.76 -2.24,-5 -5,-5"
         style="fill:#f57a8f;fill-opacity:1;fill-rule:nonzero;stroke:none"
         id="path180" /><path
         d="m 5764.29,2034.46 h -233.77 c -2.77,0 -5,2.24 -5,5 0,2.77 2.23,5 5,5 h 233.77 c 2.76,0 5,-2.23 5,-5 0,-2.76 -2.24,-5 -5,-5"
         style="fill:#131a2f;fill-opacity:1;fill-rule:nonzero;stroke:none"
         id="path182" /><path
         d="m 5205.48,1653.79 h -271.13 c -2.77,0 -5,2.24 -5,5 0,2.76 2.23,5 5,5 h 271.13 c 2.76,0 5,-2.24 5,-5 0,-2.76 -2.24,-5 -5,-5"
         style="fill:#131a2f;fill-opacity:1;fill-rule:nonzero;stroke:none"
         id="path184" /><path
         d="m 5333.43,1653.79 h -66.6 c -2.77,0 -5,2.24 -5,5 0,2.76 2.23,5 5,5 h 66.6 c 2.76,0 5,-2.24 5,-5 0,-2.76 -2.24,-5 -5,-5"
         style="fill:#131a2f;fill-opacity:1;fill-rule:nonzero;stroke:none"
         id="path186" /><path
         d="m 5120.9,1528.77 h -223.42 c -2.76,0 -5,2.24 -5,5 0,2.76 2.24,5 5,5 h 223.42 c 2.76,0 5,-2.24 5,-5 0,-2.76 -2.24,-5 -5,-5"
         style="fill:#131a2f;fill-opacity:1;fill-rule:nonzero;stroke:none"
         id="path188" /><path
         d="m 5643.71,1906.63 c -50.94,-29.08 -104.09,-51.56 -161,-67.67 -3.6,-1.03 -6.11,-4.3 -6.11,-8.05 v -87.34 c 0,-175.76 152.01,-248.91 176.69,-248.91 24.68,0 176.69,73.15 176.69,248.91 v 86.06 c 0,4.5 -3.01,8.44 -7.34,9.68 -53.61,15.35 -109.12,38.51 -159.79,67.33 -5.94,3.38 -13.21,3.38 -19.14,-0.01"
         style="fill:#fbc851;fill-opacity:1;fill-rule:nonzero;stroke:none"
         id="path190" /><path
         d="m 5596.37,1760.53 c 0,33.99 25.53,61.64 56.92,61.64 31.39,0 56.92,-27.65 56.92,-61.64 v -20.55 h -9.49 v 20.55 c 0,28.32 -21.28,51.36 -47.43,51.36 -26.15,0 -47.43,-23.04 -47.43,-51.36 v -20.55 h -9.49 v 20.55"
         style="fill:#131a2f;fill-opacity:1;fill-rule:nonzero;stroke:none"
         id="path192" /><path
         d="m 5582.4,1731.79 v -108.84 c 0,-2.48 2.01,-4.49 4.48,-4.49 h 132.82 c 2.48,0 4.49,2.01 4.49,4.49 v 108.84 z m 137.3,-123.33 h -132.82 c -7.98,0 -14.48,6.5 -14.48,14.49 v 113.84 c 0,2.76 2.24,5 5,5 h 151.79 c 2.76,0 5,-2.24 5,-5 v -113.84 c 0,-7.99 -6.5,-14.49 -14.49,-14.49"
         style="fill:#131a2f;fill-opacity:1;fill-rule:nonzero;stroke:none"
         id="path194" /><path
         d="m 5785.51,1827.84 c -3.59,0 -6.88,0.6 -9.87,1.8 -2.97,1.19 -5.57,2.84 -7.76,4.96 -2.19,2.11 -3.89,4.6 -5.08,7.46 -1.19,2.87 -1.79,5.98 -1.79,9.33 v 0.23 c 0,3.27 0.6,6.34 1.79,9.21 1.19,2.86 2.89,5.37 5.08,7.52 2.19,2.16 4.81,3.87 7.83,5.15 3.03,1.27 6.37,1.9 10.03,1.9 5.19,0 9.41,-1.07 12.68,-3.22 l 1.71,-1.24 c 3.84,-3.06 3.23,-9.11 -0.99,-11.62 l -0.19,-0.12 c -2.72,-1.61 -6.06,-1.13 -8.49,0.87 l -0.05,0.04 c -1.28,1.03 -2.99,1.55 -5.15,1.55 -2.55,0 -4.62,-0.96 -6.21,-2.86 -1.59,-1.92 -2.38,-4.27 -2.38,-7.05 v -0.25 c 0,-2.95 0.79,-5.34 2.38,-7.16 1.59,-1.84 3.66,-2.76 6.21,-2.76 2.24,0 4.01,0.55 5.33,1.62 l 0.28,0.24 c 2.33,2.02 5.64,2.46 8.33,0.93 4.28,-2.42 5,-8.43 1.24,-11.6 l -1.73,-1.34 c -3.3,-2.39 -7.7,-3.59 -13.2,-3.59 z m -0.84,-15.65 c 5.5,0 10.57,1.03 15.23,3.1 4.67,2.07 8.71,4.87 12.14,8.37 3.42,3.51 6.11,7.63 8.07,12.37 1.94,4.74 2.92,9.74 2.92,15 v 0.24 c 0,5.25 -0.98,10.23 -2.92,14.93 -1.96,4.71 -4.63,8.81 -8.01,12.32 -3.39,3.49 -7.41,6.27 -12.07,8.3 -4.66,2.03 -9.71,3.04 -15.12,3.04 -5.5,0 -10.57,-1.03 -15.23,-3.1 -4.67,-2.07 -8.71,-4.87 -12.13,-8.37 -3.43,-3.51 -6.12,-7.63 -8.07,-12.36 -1.95,-4.75 -2.93,-9.74 -2.93,-15 v -0.24 c 0,-5.26 0.96,-10.24 2.87,-14.94 1.91,-4.7 4.58,-8.8 8,-12.31 3.43,-3.5 7.47,-6.27 12.13,-8.31 4.67,-2.03 9.7,-3.04 15.12,-3.04 z m 0,-4.78 c -6.06,0 -11.71,1.15 -16.96,3.47 -5.27,2.3 -9.83,5.43 -13.69,9.37 -3.86,3.95 -6.91,8.55 -9.14,13.81 -2.23,5.26 -3.35,10.83 -3.35,16.73 v 0.24 c 0,5.89 1.12,11.47 3.35,16.72 2.23,5.27 5.3,9.89 9.2,13.87 3.9,3.99 8.51,7.15 13.8,9.5 5.3,2.35 10.98,3.53 17.03,3.53 6.06,0 11.71,-1.16 16.97,-3.47 5.26,-2.31 9.82,-5.44 13.69,-9.38 3.85,-3.95 6.9,-8.55 9.14,-13.8 2.22,-5.27 3.34,-10.84 3.34,-16.73 v -0.24 c 0,-5.9 -1.12,-11.48 -3.34,-16.73 -2.24,-5.26 -5.31,-9.89 -9.2,-13.86 -3.91,-3.98 -8.51,-7.16 -13.81,-9.5 -5.29,-2.36 -10.98,-3.53 -17.03,-3.53"
         style="fill:#2b2b43;fill-opacity:1;fill-rule:nonzero;stroke:none"
         id="path198" /><path
         d="m 5086.67,2909.14 154.9,-40.64 c 27.52,-7.22 49.63,-27.7 58.93,-54.59 l 54.89,-158.81 c 11.08,-32.06 -6.97,-66.87 -39.57,-76.28 l -33.86,-9.78 -3.37,111.01 4.82,-158.41 c 0.54,-17.72 -16.45,-30.77 -33.43,-25.67 -15.18,4.55 -26.9,16.62 -31.02,31.92 l -43.1,160.5 24.75,-187.79 c 1.77,-13.44 -13.42,-22.46 -24.37,-14.46 -41.72,30.48 -71.68,74.37 -84.85,124.33 l -9,79.21 c 0,0 -238.23,-0.89 -241.84,8.22 -3.02,7.62 -4.76,15.92 -5.16,24.66 -3.08,68.69 20.84,199.52 251.28,186.58"
         style="fill:#ffb380;fill-opacity:1;fill-rule:nonzero;stroke:none"
         id="path200" /><path
         d="m 5292.09,2571.67 c 2.21,1.27 3.61,3.72 3.43,6.44 l -8.15,115.15 c -0.26,3.77 -3.54,6.62 -7.33,6.35 -3.8,-0.27 -6.62,-3.54 -6.36,-7.33 l 8.15,-115.15 c 0.26,-3.77 3.54,-6.62 7.33,-6.36 1.06,0.08 2.06,0.4 2.93,0.9"
         style="fill:#ba3b2e;fill-opacity:1;fill-rule:nonzero;stroke:none"
         id="path202" /><path
         d="m 5197.33,2680.43 c 2.52,1.45 3.94,4.4 3.3,7.4 -0.81,3.7 -4.45,6.06 -8.17,5.27 0,0 -13.65,-2.94 -28.85,-6.51 -3.75,-0.88 -5.98,-4.57 -5.1,-8.25 0.86,-3.69 4.55,-5.98 8.24,-5.11 15.06,3.53 28.58,6.44 28.61,6.44 l 1.97,0.76"
         style="fill:#ba3b2e;fill-opacity:1;fill-rule:nonzero;stroke:none"
         id="path204" /><path
         d="m 5295.33,2694.48 c 2.52,1.45 3.94,4.4 3.29,7.39 -0.8,3.71 -4.44,6.06 -8.16,5.27 0,0 -13.65,-2.93 -28.84,-6.5 -3.66,-0.84 -5.98,-4.55 -5.11,-8.24 0.86,-3.7 4.55,-5.98 8.25,-5.11 15.03,3.52 28.57,6.43 28.6,6.43 l 1.97,0.76"
         style="fill:#ba3b2e;fill-opacity:1;fill-rule:nonzero;stroke:none"
         id="path206" /><path
         d="m 5089.14,2657.67 c 2.67,1.53 4.06,4.73 3.18,7.83 -2.94,10.34 -2.59,24.62 -2.59,24.75 0.1,3.79 -2.87,6.96 -6.65,7.06 -3.81,0.11 -6.96,-2.88 -7.06,-6.65 -0.02,-0.67 -0.43,-16.51 3.1,-28.92 1.05,-3.65 4.84,-5.77 8.48,-4.73 l 1.54,0.66"
         style="fill:#ba3b2e;fill-opacity:1;fill-rule:nonzero;stroke:none"
         id="path208" /><path
         d="m 4594.37,2152.11 -42.62,-29.32 c -10.91,-7.51 -13.38,-22.85 -5.52,-34.27 l 30.7,-44.63 c 7.86,-11.43 23.07,-14.6 33.98,-7.1 l 42.62,29.32 c 10.9,7.5 13.37,22.85 5.51,34.27 l -30.7,44.63 c -7.85,11.43 -23.07,14.6 -33.97,7.1"
         style="fill:#2b2b43;fill-opacity:1;fill-rule:nonzero;stroke:none"
         id="path210" /><path
         d="m 4642.43,2124.24 -82.11,-56.5 317.03,-460.84 82.12,56.5 -317.04,460.84"
         style="fill:#6762b7;fill-opacity:1;fill-rule:nonzero;stroke:none"
         id="path212" /><path
         d="m 4958.72,1662.88 -80.6,-55.46 c -0.36,-0.23 -1.61,-1.09 0.15,-1.11 l 109.69,-72.24 -28.25,128.26 -0.99,0.55"
         style="fill:#da5544;fill-opacity:1;fill-rule:nonzero;stroke:none"
         id="path214" /><path
         d="m 4977.34,1580.08 -28.84,-19.86 0.05,-0.4 39.26,-25.85 -10.1,45.91 -0.37,0.2"
         style="fill:#2b2b43;fill-opacity:1;fill-rule:nonzero;stroke:none"
         id="path216" /><path
         d="m 4305.5,1858.74 141.72,88.52 c 45.14,28.21 97.37,43.05 150.6,42.83 l 172.49,-0.73 c 24.77,-0.11 48.96,-7.42 69.64,-21.01 l 76.55,-50.34 c 12.2,-8.02 18.47,-22.52 15.94,-36.91 l -1.66,-9.43 5.91,-3.62 c 16.18,-9.94 25.18,-28.32 23.1,-47.2 l -3.67,-33.5 4.18,-13.69 c 5.74,-18.77 0.13,-39.17 -14.41,-52.35 l -140.82,-127.7 c -8.61,-7.8 -22.04,-6.63 -29.16,2.55 -17.59,22.67 -15.58,54.88 4.69,75.18 l 44.05,44.15 -138.52,-63.21 c -22.78,-10.41 -47.71,-15.24 -72.74,-14.12 l -80.86,3.65 -111.68,-108.04 -115.35,324.97"
         style="fill:#ffb380;fill-opacity:1;fill-rule:nonzero;stroke:none"
         id="path218" /><path
         d="m 4834.83,1910.15 93.52,-41.22"
         style="fill:#da5544;fill-opacity:1;fill-rule:nonzero;stroke:none"
         id="path220" /><path
         d="m 4928.35,1863.93 -2.02,0.42 -93.52,41.22 c -2.52,1.12 -3.67,4.07 -2.56,6.6 1.13,2.52 4.07,3.64 6.61,2.56 l 93.51,-41.22 c 2.52,-1.13 3.67,-4.08 2.56,-6.61 -0.83,-1.86 -2.67,-2.97 -4.58,-2.97"
         style="fill:#ba3b2e;fill-opacity:1;fill-rule:nonzero;stroke:none"
         id="path222" /><path
         d="m 4835.35,1832.14 117.05,-43.45"
         style="fill:#da5544;fill-opacity:1;fill-rule:nonzero;stroke:none"
         id="path224" /><path
         d="m 4952.4,1783.69 -1.74,0.31 -117.05,43.45 c -2.58,0.96 -3.9,3.84 -2.95,6.43 0.97,2.59 3.82,3.9 6.43,2.95 l 117.05,-43.45 c 2.59,-0.96 3.91,-3.84 2.95,-6.43 -0.75,-2.02 -2.66,-3.26 -4.69,-3.26"
         style="fill:#ba3b2e;fill-opacity:1;fill-rule:nonzero;stroke:none"
         id="path226" /><path
         d="m 4851.79,1740.01 -27.14,-24.52"
         style="fill:#da5544;fill-opacity:1;fill-rule:nonzero;stroke:none"
         id="path228" /><path
         d="m 4824.65,1710.49 c -1.37,0 -2.73,0.55 -3.71,1.65 -1.85,2.05 -1.69,5.2 0.36,7.06 l 27.14,24.52 c 2.04,1.85 5.2,1.69 7.06,-0.36 1.84,-2.05 1.69,-5.21 -0.36,-7.06 L 4828,1711.78 c -0.96,-0.86 -2.15,-1.29 -3.35,-1.29"
         style="fill:#ba3b2e;fill-opacity:1;fill-rule:nonzero;stroke:none"
         id="path230" /><path
         d="m 4472.5,1517.29 -62.43,-23.58 c -12.75,-4.82 -26.98,1.61 -31.8,14.36 l -132.04,349.41 c -4.81,12.74 1.61,26.98 14.37,31.8 l 62.43,23.59 c 12.74,4.82 26.98,-1.61 31.79,-14.35 l 132.05,-349.42 c 4.81,-12.74 -1.62,-26.98 -14.37,-31.81"
         style="fill:#efeee5;fill-opacity:1;fill-rule:nonzero;stroke:none"
         id="path232" /><path
         d="m 3300.56,1907.47 463.52,-126.4 495.98,130.95 c 13.24,3.5 27,-3.56 31.87,-16.38 l 154.48,-405.81 c 7.52,-19.76 -3.56,-41.71 -23.92,-47.44 -93.77,-26.37 -277.44,-80.51 -469.05,-133.38 -92.13,-25.42 -186.11,-50.55 -272.8,-72.17 -50.98,-12.72 -101.75,-12.39 -149.09,-1.32 -130.01,30.38 -234.1,141.67 -245.49,285.56 -3.66,46.27 -6.34,88.12 -7.18,119.21 -2.37,87.92 2.37,185.86 0,273.79"
         style="fill:#5995fd;fill-opacity:1;fill-rule:nonzero;stroke:none"
         id="path234" /><path
         d="m 3708.54,1779.89 c -2.57,0 -4.75,1.97 -4.98,4.56 l -25.06,286.21 c -0.24,2.76 1.79,5.18 4.54,5.42 2.75,0.16 5.17,-1.79 5.42,-4.54 l 25.06,-286.21 c 0.24,-2.75 -1.79,-5.17 -4.55,-5.42 l -0.43,-0.02"
         style="fill:#2b2b43;fill-opacity:1;fill-rule:nonzero;stroke:none"
         id="path236" /><path
         d="m 3610.09,1743.9 c -2.18,0 -4.19,1.44 -4.81,3.65 -0.74,2.66 0.81,5.42 3.47,6.16 l 270.06,75.78 c 2.64,0.74 5.42,-0.81 6.16,-3.46 0.74,-2.66 -0.8,-5.42 -3.47,-6.17 l -270.05,-75.78 -1.36,-0.18"
         style="fill:#2b2b43;fill-opacity:1;fill-rule:nonzero;stroke:none"
         id="path238" /><path
         d="m 3616.75,1216.04 c -30.3,0 -60.56,5.7 -88.7,16.99 -2.56,1.02 -3.81,3.93 -2.78,6.5 1.03,2.57 3.94,3.8 6.5,2.77 45.04,-18.06 95.77,-21.21 142.84,-8.85 l 279.21,73.23 c 2.7,0.72 5.4,-0.89 6.1,-3.56 0.71,-2.68 -0.9,-5.41 -3.56,-6.11 l -279.21,-73.23 c -19.72,-5.18 -40.07,-7.74 -60.4,-7.74"
         style="fill:#2b2b43;fill-opacity:1;fill-rule:nonzero;stroke:none"
         id="path240" /><path
         d="m 4359.83,1516.74 c 0,-12.2 -9.88,-22.08 -22.07,-22.08 -12.19,0 -22.08,9.88 -22.08,22.08 0,12.2 9.89,22.08 22.08,22.08 12.19,0 22.07,-9.88 22.07,-22.08"
         style="fill:#efeee5;fill-opacity:1;fill-rule:nonzero;stroke:none"
         id="path242" /><path
         d="m 4422.49,1437.39 c -2.26,0 -4.31,1.54 -4.86,3.82 -0.65,2.69 1,5.39 3.68,6.05 10.12,2.45 18.59,9.18 23.26,18.47 4.67,9.3 5.02,20.12 0.95,29.7 -1.09,2.54 0.1,5.48 2.64,6.55 2.52,1.09 5.47,-0.1 6.56,-2.64 5.22,-12.29 4.78,-26.18 -1.21,-38.1 -5.99,-11.92 -16.87,-20.57 -29.84,-23.71 l -1.18,-0.14"
         style="fill:#2b2b43;fill-opacity:1;fill-rule:nonzero;stroke:none"
         id="path244" /><path
         d="m 5497.59,3294.91 c -38.19,-185.93 -219.87,-305.7 -405.79,-267.51 -55.49,11.39 -105.09,35.57 -146.35,68.83 l -117.18,-42.71 40.9,128.91 c -44.92,72.13 -63.33,160.95 -44.88,250.76 38.18,185.94 219.86,305.7 405.79,267.52 185.93,-38.19 305.7,-219.88 267.51,-405.8"
         style="fill:#6762b7;fill-opacity:1;fill-rule:nonzero;stroke:none"
         id="path246" /><path
         d="m 5165.69,3501.76 c -18.73,0 -36.04,-3.29 -51.46,-9.79 -15.45,-6.5 -28.94,-15.34 -40.09,-26.3 -11.12,-10.9 -19.83,-23.82 -25.91,-38.4 -6.08,-14.59 -9.16,-30.41 -9.16,-47.04 v -1.27 c 0,-17.06 3.08,-33.1 9.16,-47.68 6.07,-14.57 14.78,-27.37 25.87,-38.05 11.13,-10.73 24.49,-19.26 39.72,-25.35 15.23,-6.09 32.26,-9.18 50.6,-9.18 28.05,0 50.7,6.1 67.33,18.13 3.08,2.22 6.05,4.54 8.9,6.94 8.02,6.73 12.06,16.68 11.07,27.31 -1.02,11 -7.33,20.8 -16.89,26.21 -12.14,6.88 -27.66,5.09 -38.61,-4.41 l -1.59,-1.33 c -7.89,-6.46 -18.48,-9.73 -31.49,-9.73 -15.01,0 -27.39,5.5 -36.81,16.34 -9.26,10.63 -13.96,24.58 -13.96,41.43 v 1.27 c 0,15.98 4.67,29.68 13.89,40.72 9.42,11.32 21.84,17.06 36.88,17.06 12.56,0 22.83,-3.16 30.5,-9.38 12.11,-9.97 27.57,-11.62 39.73,-4.42 l 1.01,0.61 c 9.51,5.65 15.63,15.65 16.37,26.76 0.72,10.62 -3.53,20.41 -11.66,26.87 -2.81,2.24 -5.72,4.35 -8.75,6.34 -16.47,10.84 -38.23,16.34 -64.65,16.34 z m -1.27,-253.06 c -19.62,0 -37.89,3.33 -54.31,9.89 -16.44,6.58 -30.88,15.81 -42.94,27.44 -12.09,11.64 -21.57,25.57 -28.18,41.41 -6.58,15.81 -9.92,33.14 -9.92,51.52 v 1.27 c 0,17.95 3.34,35.07 9.92,50.88 6.6,15.82 16.07,29.85 28.14,41.7 12.06,11.84 26.6,21.39 43.21,28.38 16.66,7.01 35.29,10.57 55.35,10.57 28.41,0 52.02,-6.06 70.15,-18 3.27,-2.15 6.44,-4.43 9.47,-6.85 10.74,-8.53 16.37,-21.43 15.42,-35.38 -0.96,-14.39 -8.91,-27.35 -21.24,-34.67 l -1.01,-0.61 c -15.8,-9.39 -35.78,-7.4 -50.91,5.06 -6.08,4.93 -14.22,7.33 -24.43,7.33 -12.1,0 -21.66,-4.41 -29.2,-13.46 -7.79,-9.33 -11.57,-20.55 -11.57,-34.32 v -1.27 c 0,-14.37 3.87,-26.1 11.5,-34.87 7.55,-8.68 17.13,-12.9 29.27,-12.9 10.64,0 19.11,2.51 25.15,7.46 l 1.37,1.15 c 14.15,12.28 34.3,14.52 50.1,5.57 12.41,-7.03 20.6,-19.74 21.92,-34 1.28,-13.94 -4.03,-27.02 -14.59,-35.89 -3.04,-2.56 -6.2,-5.02 -9.48,-7.39 -18.37,-13.28 -42.99,-20.02 -73.19,-20.02 z m -3.17,355.43 c -31.34,0 -61.14,-6.17 -88.59,-18.33 -27.49,-12.21 -51.68,-28.85 -71.88,-49.48 -20.26,-20.67 -36.39,-44.96 -47.94,-72.2 -11.54,-27.22 -17.4,-56.51 -17.4,-87.07 v -1.27 c 0,-30.56 5.86,-59.85 17.4,-87.06 11.55,-27.27 27.58,-51.45 47.62,-71.89 20.02,-20.44 43.98,-36.87 71.24,-48.84 27.22,-11.95 56.92,-18.02 88.27,-18.02 31.34,0 61.14,6.17 88.57,18.33 27.48,12.17 51.67,28.82 71.91,49.48 20.23,20.66 36.36,44.95 47.93,72.21 11.54,27.25 17.4,56.54 17.4,87.06 v 1.27 c 0,30.52 -5.86,59.81 -17.4,87.06 -11.58,27.27 -27.6,51.46 -47.62,71.89 -20.01,20.43 -43.98,36.86 -71.24,48.84 -27.22,11.96 -56.92,18.02 -88.27,18.02 z m -1.28,-464.16 c -32.74,0 -63.8,6.35 -92.29,18.86 -28.43,12.49 -53.45,29.65 -74.37,50.99 -20.92,21.34 -37.63,46.57 -49.67,74.99 -12.08,28.45 -18.2,59.06 -18.2,90.97 v 1.27 c 0,31.91 6.12,62.52 18.2,90.97 12.03,28.4 28.86,53.74 49.99,75.31 21.1,21.52 46.32,38.89 74.97,51.61 28.73,12.74 59.91,19.19 92.65,19.19 32.74,0 63.8,-6.35 92.29,-18.86 28.43,-12.5 53.45,-29.66 74.37,-51 20.89,-21.33 37.61,-46.56 49.67,-74.98 12.08,-28.5 18.2,-59.1 18.2,-90.97 v -1.27 c 0,-31.87 -6.12,-62.47 -18.2,-90.97 -12.05,-28.41 -28.87,-53.74 -49.98,-75.3 -21.14,-21.57 -46.38,-38.93 -75,-51.62 -28.71,-12.73 -59.89,-19.19 -92.63,-19.19"
         style="fill:#ffffff;fill-opacity:1;fill-rule:nonzero;stroke:none"
         id="path248" /><path
         d="m 5556.07,3060.69 h 301.08 c 62.76,0 114.11,-51.35 114.11,-114.11 v -25.96 c 0,-62.76 -51.35,-114.11 -114.11,-114.11 h -301.08 c -62.76,0 -114.11,51.35 -114.11,114.11 v 25.96 c 0,62.76 51.35,114.11 114.11,114.11"
         style="fill:#f57a8f;fill-opacity:1;fill-rule:nonzero;stroke:none"
         id="path250" /><path
         d="m 5847.66,2960.99 c -11.54,0 -20.92,-9.38 -20.92,-20.91 0,-11.54 9.38,-20.92 20.92,-20.92 11.53,0 20.91,9.38 20.91,20.92 0,11.53 -9.38,20.91 -20.91,20.91 z m 0,-51.83 c -17.05,0 -30.92,13.87 -30.92,30.92 0,17.04 13.87,30.91 30.92,30.91 17.05,0 30.91,-13.87 30.91,-30.91 0,-17.05 -13.86,-30.92 -30.91,-30.92"
         style="fill:#ffffff;fill-opacity:1;fill-rule:nonzero;stroke:none"
         id="path252" /><path
         d="m 5706.61,2960.99 c -11.53,0 -20.92,-9.38 -20.92,-20.91 0,-11.54 9.39,-20.92 20.92,-20.92 11.53,0 20.92,9.38 20.92,20.92 0,11.53 -9.39,20.91 -20.92,20.91 z m 0,-51.83 c -17.05,0 -30.92,13.87 -30.92,30.92 0,17.04 13.87,30.91 30.92,30.91 17.05,0 30.92,-13.87 30.92,-30.91 0,-17.05 -13.87,-30.92 -30.92,-30.92"
         style="fill:#ffffff;fill-opacity:1;fill-rule:nonzero;stroke:none"
         id="path254" /><path
         d="m 5566.06,2960.99 c -11.53,0 -20.91,-9.38 -20.91,-20.91 0,-11.54 9.38,-20.92 20.91,-20.92 11.54,0 20.92,9.38 20.92,20.92 0,11.53 -9.38,20.91 -20.92,20.91 z m 0,-51.83 c -17.05,0 -30.91,13.87 -30.91,30.92 0,17.04 13.86,30.91 30.91,30.91 17.06,0 30.92,-13.87 30.92,-30.91 0,-17.05 -13.86,-30.92 -30.92,-30.92"
         style="fill:#ffffff;fill-opacity:1;fill-rule:nonzero;stroke:none"
         id="path256" /><path
         d="m 5887.1,3261.07 c -29.35,-69.35 -109.37,-101.79 -178.71,-72.44 -20.7,8.76 -38.12,22.03 -51.57,38.18 l -48.91,-7.48 25.95,46.96 c -11.85,31.56 -12.09,67.55 2.09,101.05 29.34,69.35 109.35,101.79 178.71,72.44 69.34,-29.35 101.79,-109.36 72.44,-178.71"
         style="fill:#8b88cc;fill-opacity:1;fill-rule:nonzero;stroke:none"
         id="path258" /><path
         d="m 5827.32,3359.1 h -129.7 c -2.77,0 -5,2.24 -5,5 0,2.77 2.23,5 5,5 h 129.7 c 2.77,0 5,-2.23 5,-5 0,-2.76 -2.23,-5 -5,-5"
         style="fill:#ffffff;fill-opacity:1;fill-rule:nonzero;stroke:none"
         id="path260" /><path
         d="m 5827.32,3315.52 h -129.7 c -2.77,0 -5,2.23 -5,5 0,2.76 2.23,5 5,5 h 129.7 c 2.77,0 5,-2.24 5,-5 0,-2.77 -2.23,-5 -5,-5"
         style="fill:#ffffff;fill-opacity:1;fill-rule:nonzero;stroke:none"
         id="path262" /><path
         d="m 5827.32,3268.29 h -129.7 c -2.77,0 -5,2.24 -5,5 0,2.76 2.23,5 5,5 h 129.7 c 2.77,0 5,-2.24 5,-5 0,-2.76 -2.23,-5 -5,-5"
         style="fill:#ffffff;fill-opacity:1;fill-rule:nonzero;stroke:none"
         id="path264" /></g></g></svg>
